<svg width="12" height="12" viewBox="0 0 12 12" fill="none" xmlns="http://www.w3.org/2000/svg">
<g clip-path="url(#clip0_510_2528)">
<path d="M8.00445 2.10938H8.92495C9.16908 2.10938 9.40322 2.20636 9.57584 2.37898C9.74847 2.55161 9.84545 2.78574 9.84545 3.02988V9.47338C9.84545 9.71751 9.74847 9.95165 9.57584 10.1243C9.40322 10.2969 9.16908 10.3939 8.92495 10.3939H3.40195C3.15781 10.3939 2.92368 10.2969 2.75105 10.1243C2.57843 9.95165 2.48145 9.71751 2.48145 9.47338V3.02988C2.48145 2.78574 2.57843 2.55161 2.75105 2.37898C2.92368 2.20636 3.15781 2.10938 3.40195 2.10938H4.32245" stroke="#464646" stroke-width="0.920501" stroke-linecap="round" stroke-linejoin="round"/>
<path d="M7.54402 1.18945H4.78252C4.52833 1.18945 4.32227 1.39551 4.32227 1.6497V2.5702C4.32227 2.82439 4.52833 3.03045 4.78252 3.03045H7.54402C7.79821 3.03045 8.00427 2.82439 8.00427 2.5702V1.6497C8.00427 1.39551 7.79821 1.18945 7.54402 1.18945Z" stroke="#464646" stroke-width="0.920501" stroke-linecap="round" stroke-linejoin="round"/>
</g>
<defs>
<clipPath id="clip0_510_2528">
<rect width="11.046" height="11.046" fill="white" transform="translate(0.640625 0.269531)"/>
</clipPath>
</defs>
</svg>
