<svg width="148" height="101" viewBox="0 0 148 101" fill="none" xmlns="http://www.w3.org/2000/svg">
<g clip-path="url(#clip0_3350_10)">
<path d="M83.484 44.8538L72.304 33.6738L61.124 44.8538" stroke="black" stroke-width="5.59" stroke-linecap="round" stroke-linejoin="round"/>
<path d="M72.3037 33.6738V58.8289" stroke="#9C1421" stroke-width="5.59" stroke-linecap="round" stroke-linejoin="round"/>
<path d="M95.7539 51.5336C98.48 50.0474 100.634 47.6957 101.875 44.8497C103.116 42.0037 103.374 38.8254 102.608 35.8164C101.842 32.8075 100.096 30.1393 97.6452 28.2329C95.1945 26.3265 92.1788 25.2906 89.0739 25.2885H85.5522C84.7062 22.0163 83.1294 18.9784 80.9403 16.4032C78.7512 13.8281 76.0068 11.7827 72.9135 10.4208C69.8201 9.05898 66.4583 8.41611 63.0807 8.54055C59.7031 8.665 56.3977 9.55351 53.4129 11.1393C50.4282 12.7251 47.8418 14.9669 45.8481 17.6961C43.8545 20.4254 42.5055 23.5711 41.9026 26.8968C41.2997 30.2224 41.4585 33.6415 42.3672 36.8969C43.2759 40.1523 44.9107 43.1594 47.1489 45.692" stroke="black" stroke-width="5.59" stroke-linecap="round" stroke-linejoin="round"/>
<path d="M83.484 44.8538L72.304 33.6738L61.124 44.8538" stroke="#9C1421" stroke-width="5.59" stroke-linecap="round" stroke-linejoin="round"/>
</g>
<path d="M29.0518 79.6757C29.0518 80.3889 28.9358 81.042 28.704 81.6349C28.4722 82.2234 28.1446 82.7294 27.7211 83.1529C27.302 83.5764 26.796 83.9062 26.2031 84.1425C25.6147 84.3743 24.9594 84.4902 24.2372 84.4902H20.5995V74.8611H24.2372C24.9594 74.8611 25.6147 74.9792 26.2031 75.2155C26.796 75.4473 27.302 75.775 27.7211 76.1985C28.1446 76.622 28.4722 77.1302 28.704 77.7231C28.9358 78.3115 29.0518 78.9624 29.0518 79.6757ZM27.4536 79.6757C27.4536 79.1229 27.3778 78.6258 27.2262 78.1845C27.0791 77.7432 26.8651 77.3709 26.5843 77.0678C26.3079 76.7646 25.9713 76.5328 25.5746 76.3723C25.1778 76.2074 24.732 76.1249 24.2372 76.1249H22.1709V83.2264H24.2372C24.732 83.2264 25.1778 83.1462 25.5746 82.9857C25.9713 82.8252 26.3079 82.5934 26.5843 82.2902C26.8651 81.9826 27.0791 81.6104 27.2262 81.1735C27.3778 80.7322 27.4536 80.2329 27.4536 79.6757ZM31.7329 78.9334C31.9469 78.501 32.2054 78.1622 32.5086 77.917C32.8117 77.6674 33.175 77.5425 33.5985 77.5425C33.7456 77.5425 33.8838 77.5604 34.0131 77.596C34.1424 77.6272 34.2583 77.6763 34.3608 77.7432L34.2605 78.8264C34.2427 78.9022 34.2137 78.9557 34.1736 78.9869C34.1379 79.0137 34.0889 79.027 34.0265 79.027C33.9596 79.027 33.8638 79.0159 33.739 78.9936C33.6141 78.9669 33.4826 78.9535 33.3444 78.9535C33.1438 78.9535 32.9655 78.9825 32.8095 79.0404C32.6579 79.0984 32.5197 79.1831 32.3949 79.2945C32.2745 79.406 32.1675 79.5419 32.0739 79.7024C31.9803 79.8629 31.8934 80.0457 31.8131 80.2507V84.4902H30.3754V77.6696H31.2113C31.3629 77.6696 31.4676 77.6986 31.5256 77.7565C31.5835 77.81 31.6237 77.9059 31.646 78.0441L31.7329 78.9334ZM38.8521 81.5079C38.3395 81.5257 37.9071 81.5681 37.5549 81.6349C37.2027 81.6973 36.9174 81.7798 36.699 81.8823C36.4805 81.9804 36.3223 82.0986 36.2242 82.2367C36.1306 82.3749 36.0838 82.5265 36.0838 82.6915C36.0838 82.8519 36.1083 82.9901 36.1573 83.106C36.2108 83.2175 36.2821 83.3111 36.3713 83.3869C36.4649 83.4582 36.5719 83.5117 36.6923 83.5474C36.8171 83.5786 36.9531 83.5942 37.1002 83.5942C37.4746 83.5942 37.7956 83.5251 38.0631 83.3869C38.335 83.2442 38.598 83.0392 38.8521 82.7717V81.5079ZM35.0406 78.6191C35.8118 77.9014 36.7302 77.5425 37.7956 77.5425C38.1879 77.5425 38.5356 77.6072 38.8388 77.7365C39.1464 77.8613 39.4027 78.0396 39.6078 78.2714C39.8173 78.5032 39.9755 78.7796 40.0825 79.1006C40.194 79.4171 40.2497 79.7693 40.2497 80.1571V84.4902H39.6078C39.4696 84.4902 39.3648 84.4702 39.2935 84.4301C39.2221 84.3855 39.162 84.2985 39.1129 84.1693L38.9725 83.6143C38.7986 83.7703 38.627 83.9107 38.4576 84.0355C38.2882 84.1559 38.1121 84.2584 37.9293 84.3431C37.751 84.4278 37.5571 84.4902 37.3476 84.5304C37.1425 84.5749 36.9152 84.5972 36.6655 84.5972C36.3891 84.5972 36.1306 84.5593 35.8898 84.4835C35.6536 84.4078 35.4485 84.2941 35.2746 84.1425C35.1008 83.9865 34.9626 83.7948 34.8601 83.5674C34.762 83.3401 34.7129 83.0726 34.7129 82.765C34.7129 82.502 34.782 82.2457 34.9202 81.996C35.0629 81.7464 35.2947 81.5235 35.6157 81.3273C35.9411 81.1267 36.3668 80.9618 36.8929 80.8325C37.4234 80.7032 38.0765 80.6297 38.8521 80.6118V80.1571C38.8521 79.6668 38.7474 79.3012 38.5378 79.0605C38.3283 78.8197 38.0207 78.6994 37.6151 78.6994C37.3387 78.6994 37.1069 78.735 36.9196 78.8064C36.7324 78.8732 36.5697 78.9468 36.4315 79.027C36.2933 79.1073 36.1707 79.1831 36.0637 79.2544C35.9567 79.3213 35.843 79.3547 35.7227 79.3547C35.6246 79.3547 35.5399 79.3302 35.4686 79.2811C35.4017 79.2276 35.346 79.163 35.3014 79.0872L35.0406 78.6191ZM44.3679 81.0197C44.8137 81.0197 45.148 80.9061 45.3709 80.6787C45.5938 80.4513 45.7053 80.1549 45.7053 79.7893C45.7053 79.4149 45.5938 79.1184 45.3709 78.9C45.148 78.6815 44.8137 78.5723 44.3679 78.5723C43.9266 78.5723 43.5922 78.6815 43.3649 78.9C43.142 79.1184 43.0305 79.4149 43.0305 79.7893C43.0305 79.9677 43.0595 80.1326 43.1174 80.2842C43.1754 80.4357 43.2601 80.5673 43.3715 80.6787C43.483 80.7857 43.6212 80.8704 43.7861 80.9328C43.9555 80.9908 44.1494 81.0197 44.3679 81.0197ZM46.3673 84.8246C46.3673 84.673 46.3227 84.5526 46.2335 84.4635C46.1488 84.3699 46.0329 84.2985 45.8858 84.2495C45.7387 84.196 45.5671 84.1581 45.3709 84.1358C45.1748 84.1091 44.9652 84.0912 44.7424 84.0823C44.5239 84.069 44.2988 84.0578 44.067 84.0489C43.8396 84.0355 43.619 84.0132 43.405 83.982C43.191 84.0935 43.0149 84.2272 42.8767 84.3832C42.743 84.5393 42.6761 84.7198 42.6761 84.9249C42.6761 85.0586 42.7095 85.1834 42.7764 85.2993C42.8477 85.4153 42.9547 85.5156 43.0974 85.6003C43.2445 85.685 43.4295 85.7518 43.6524 85.8009C43.8797 85.8499 44.1517 85.8744 44.4682 85.8744C45.1012 85.8744 45.576 85.7763 45.8925 85.5802C46.209 85.384 46.3673 85.1322 46.3673 84.8246ZM47.8116 77.917V78.452C47.8116 78.6303 47.7046 78.7395 47.4907 78.7796L46.8086 78.8933C46.9245 79.1519 46.9825 79.4394 46.9825 79.7559C46.9825 80.0903 46.9156 80.3934 46.7819 80.6653C46.6526 80.9373 46.472 81.1691 46.2402 81.3608C46.0084 81.5525 45.732 81.6996 45.411 81.8021C45.0901 81.9046 44.7424 81.9559 44.3679 81.9559C44.2252 81.9559 44.0848 81.9492 43.9466 81.9358C43.8129 81.918 43.6814 81.8957 43.5521 81.869C43.4228 81.9448 43.327 82.025 43.2645 82.1097C43.2021 82.1944 43.1709 82.2813 43.1709 82.3705C43.1709 82.5176 43.2356 82.6268 43.3649 82.6981C43.4941 82.7695 43.6635 82.8207 43.8731 82.8519C44.087 82.8831 44.33 82.9032 44.6019 82.9121C44.8739 82.921 45.1503 82.9366 45.4311 82.9589C45.712 82.9812 45.9883 83.0191 46.2603 83.0726C46.5322 83.1216 46.7729 83.2063 46.9825 83.3267C47.1964 83.4426 47.3681 83.6009 47.4974 83.8015C47.6266 84.0021 47.6913 84.2629 47.6913 84.5839C47.6913 84.8781 47.6177 85.1656 47.4706 85.4465C47.3235 85.7273 47.1095 85.977 46.8287 86.1954C46.5523 86.4138 46.2135 86.5877 45.8123 86.717C45.411 86.8507 44.9541 86.9176 44.4414 86.9176C43.9332 86.9176 43.4897 86.8685 43.1107 86.7705C42.7363 86.6724 42.422 86.5387 42.1679 86.3693C41.9183 86.2043 41.731 86.0126 41.6062 85.7942C41.4858 85.5757 41.4257 85.3484 41.4257 85.1121C41.4257 84.7911 41.526 84.517 41.7266 84.2896C41.9316 84.0623 42.208 83.884 42.5557 83.7547C42.3685 83.6655 42.2169 83.5429 42.101 83.3869C41.9896 83.2309 41.9339 83.0258 41.9339 82.7717C41.9339 82.5711 42.0074 82.3616 42.1545 82.1431C42.3016 81.9247 42.5223 81.7397 42.8165 81.5881C42.4777 81.4009 42.2102 81.1535 42.0141 80.8459C41.8179 80.5338 41.7199 80.1705 41.7199 79.7559C41.7199 79.4171 41.7845 79.1117 41.9138 78.8398C42.0475 78.5679 42.2325 78.3361 42.4688 78.1444C42.7051 77.9527 42.9837 77.8056 43.3047 77.703C43.6301 77.6005 43.9845 77.5492 44.3679 77.5492C44.9563 77.5492 45.469 77.6718 45.9059 77.917H47.8116ZM54.6047 79.8763C54.1946 80.117 53.8914 80.3979 53.6953 80.7188C53.4991 81.0398 53.401 81.3875 53.401 81.762C53.401 82.025 53.4479 82.2613 53.5415 82.4708C53.6395 82.6759 53.7666 82.8497 53.9226 82.9924C54.0831 83.135 54.2659 83.2442 54.471 83.32C54.6805 83.3958 54.8967 83.4337 55.1196 83.4337C55.5609 83.4337 55.9621 83.3601 56.3232 83.213C56.6843 83.0615 57.0053 82.8586 57.2861 82.6045L54.6047 79.8763ZM60.9305 84.4902H59.5329C59.4572 84.4902 59.3881 84.4858 59.3256 84.4769C59.2677 84.4679 59.212 84.4546 59.1585 84.4367C59.1094 84.4144 59.0604 84.3855 59.0114 84.3498C58.9668 84.3141 58.9177 84.2673 58.8642 84.2094L58.0618 83.3936C57.6383 83.768 57.1569 84.0623 56.6174 84.2763C56.0825 84.4902 55.5007 84.5972 54.8722 84.5972C54.5066 84.5972 54.1478 84.5348 53.7956 84.41C53.4479 84.2852 53.1358 84.1069 52.8594 83.875C52.583 83.6388 52.3601 83.3535 52.1907 83.0191C52.0213 82.6803 51.9366 82.2992 51.9366 81.8757C51.9366 81.5681 51.9857 81.2783 52.0837 81.0064C52.1863 80.7344 52.3267 80.4826 52.505 80.2507C52.6878 80.0145 52.9018 79.8027 53.1469 79.6155C53.3921 79.4283 53.6618 79.2678 53.9561 79.134C53.702 78.7952 53.517 78.4653 53.401 78.1444C53.2851 77.8234 53.2272 77.498 53.2272 77.1681C53.2272 76.8382 53.2874 76.5261 53.4077 76.2319C53.5281 75.9377 53.702 75.6814 53.9293 75.4629C54.1611 75.2445 54.4397 75.0729 54.7652 74.948C55.0951 74.8188 55.4673 74.7541 55.8819 74.7541C56.2564 74.7541 56.5929 74.8121 56.8916 74.928C57.1947 75.0439 57.4533 75.1999 57.6673 75.3961C57.8857 75.5922 58.0551 75.8173 58.1755 76.0714C58.3003 76.3255 58.3739 76.5885 58.3962 76.8605L57.4867 77.0477C57.4065 77.0655 57.3307 77.0544 57.2594 77.0143C57.1925 76.9742 57.1413 76.9073 57.1056 76.8137C57.0699 76.6978 57.0187 76.5841 56.9518 76.4726C56.8849 76.3567 56.8025 76.2542 56.7044 76.165C56.6063 76.0759 56.4882 76.0046 56.35 75.9511C56.2162 75.8931 56.0602 75.8641 55.8819 75.8641C55.6768 75.8641 55.4918 75.8976 55.3269 75.9644C55.1664 76.0313 55.0282 76.1249 54.9123 76.2453C54.8008 76.3612 54.7139 76.4972 54.6515 76.6532C54.5935 76.8092 54.5646 76.9764 54.5646 77.1547C54.5646 77.2974 54.5802 77.4356 54.6114 77.5693C54.6426 77.703 54.6938 77.8368 54.7652 77.9705C54.8365 78.1042 54.9257 78.2424 55.0327 78.3851C55.1441 78.5233 55.2778 78.6726 55.4339 78.8331L58.0886 81.5681C58.2491 81.2738 58.3761 80.9685 58.4697 80.652C58.5633 80.331 58.6257 80.0078 58.657 79.6824C58.6659 79.5887 58.6971 79.5152 58.7506 79.4617C58.8041 79.4037 58.8754 79.3748 58.9645 79.3748H59.8539C59.8494 79.932 59.7647 80.4692 59.5998 80.9863C59.4393 81.499 59.212 81.976 58.9177 82.4173L60.9305 84.4902ZM69.5606 79.348C69.36 79.0894 69.1393 78.9089 68.8986 78.8064C68.6578 78.7038 68.397 78.6526 68.1162 78.6526C67.5545 78.6526 67.1154 78.8599 66.7989 79.2745C66.4824 79.6846 66.3241 80.2931 66.3241 81.1C66.3241 81.519 66.3598 81.8779 66.4311 82.1766C66.5024 82.4708 66.605 82.7115 66.7387 82.8988C66.8724 83.086 67.0351 83.222 67.2268 83.3067C67.4185 83.3914 67.6347 83.4337 67.8755 83.4337C68.241 83.4337 68.5553 83.3557 68.8183 83.1997C69.0858 83.0392 69.3332 82.8141 69.5606 82.5243V79.348ZM70.9982 74.5936V84.4902H70.129C69.9373 84.4902 69.8147 84.3988 69.7612 84.2161L69.6341 83.4738C69.3488 83.8082 69.0234 84.0779 68.6578 84.2829C68.2967 84.488 67.8755 84.5905 67.394 84.5905C67.0106 84.5905 66.6629 84.5148 66.3509 84.3632C66.0388 84.2072 65.7713 83.982 65.5484 83.6878C65.3255 83.3936 65.1517 83.0303 65.0268 82.5978C64.9065 82.161 64.8463 81.6617 64.8463 81.1C64.8463 80.5918 64.9132 80.1215 65.0469 79.689C65.1851 79.2566 65.3813 78.8822 65.6354 78.5656C65.8895 78.2447 66.1971 77.995 66.5581 77.8167C66.9237 77.6339 67.3316 77.5425 67.7818 77.5425C68.1831 77.5425 68.5241 77.6072 68.8049 77.7365C69.0858 77.8613 69.3377 78.0374 69.5606 78.2647V74.5936H70.9982ZM74.1137 78.9334C74.3277 78.501 74.5863 78.1622 74.8894 77.917C75.1925 77.6674 75.5559 77.5425 75.9794 77.5425C76.1265 77.5425 76.2647 77.5604 76.3939 77.596C76.5232 77.6272 76.6391 77.6763 76.7417 77.7432L76.6414 78.8264C76.6235 78.9022 76.5946 78.9557 76.5544 78.9869C76.5188 79.0137 76.4697 79.027 76.4073 79.027C76.3405 79.027 76.2446 79.0159 76.1198 78.9936C75.995 78.9669 75.8635 78.9535 75.7253 78.9535C75.5247 78.9535 75.3463 78.9825 75.1903 79.0404C75.0387 79.0984 74.9005 79.1831 74.7757 79.2945C74.6554 79.406 74.5484 79.5419 74.4547 79.7024C74.3611 79.8629 74.2742 80.0457 74.194 80.2507V84.4902H72.7563V77.6696H73.5921C73.7437 77.6696 73.8485 77.6986 73.9064 77.7565C73.9644 77.81 74.0045 77.9059 74.0268 78.0441L74.1137 78.9334ZM80.4069 77.5626C80.9107 77.5626 81.3654 77.6451 81.771 77.81C82.1812 77.975 82.5289 78.209 82.8142 78.5121C83.104 78.8153 83.3269 79.1831 83.4829 79.6155C83.6389 80.0479 83.7169 80.5338 83.7169 81.0732C83.7169 81.6126 83.6389 82.0986 83.4829 82.531C83.3269 82.9634 83.104 83.3334 82.8142 83.641C82.5289 83.9441 82.1812 84.1782 81.771 84.3431C81.3654 84.5081 80.9107 84.5905 80.4069 84.5905C79.8987 84.5905 79.4396 84.5081 79.0294 84.3431C78.6237 84.1782 78.276 83.9441 77.9863 83.641C77.6965 83.3334 77.4736 82.9634 77.3176 82.531C77.1615 82.0986 77.0835 81.6126 77.0835 81.0732C77.0835 80.5338 77.1615 80.0479 77.3176 79.6155C77.4736 79.1831 77.6965 78.8153 77.9863 78.5121C78.276 78.209 78.6237 77.975 79.0294 77.81C79.4396 77.6451 79.8987 77.5626 80.4069 77.5626ZM80.4069 83.4671C81.0221 83.4671 81.4791 83.2621 81.7777 82.8519C82.0809 82.4374 82.2324 81.8467 82.2324 81.0799C82.2324 80.3132 82.0809 79.7225 81.7777 79.3079C81.4791 78.8888 81.0221 78.6793 80.4069 78.6793C79.7828 78.6793 79.3192 78.8888 79.016 79.3079C78.7129 79.7225 78.5613 80.3132 78.5613 81.0799C78.5613 81.8467 78.7129 82.4374 79.016 82.8519C79.3192 83.2621 79.7828 83.4671 80.4069 83.4671ZM86.536 82.7784C86.7366 83.0369 86.955 83.2197 87.1913 83.3267C87.432 83.4292 87.6973 83.4805 87.987 83.4805C88.5487 83.4805 88.9856 83.2754 89.2977 82.8653C89.6142 82.4552 89.7724 81.8445 89.7724 81.0331C89.7724 80.6141 89.7368 80.2574 89.6655 79.9632C89.5941 79.6645 89.4916 79.4216 89.3579 79.2343C89.2241 79.0471 89.0614 78.9111 88.8697 78.8264C88.678 78.7417 88.4618 78.6994 88.2211 78.6994C87.8555 78.6994 87.539 78.7796 87.2715 78.9401C87.0085 79.0961 86.7633 79.3213 86.536 79.6155V82.7784ZM86.4624 78.6593C86.7477 78.3249 87.0709 78.0552 87.432 77.8501C87.7976 77.6451 88.2211 77.5425 88.7025 77.5425C89.0859 77.5425 89.4336 77.6206 89.7457 77.7766C90.0578 77.9282 90.3252 78.1511 90.5481 78.4453C90.771 78.7395 90.9427 79.1051 91.063 79.5419C91.1878 79.9743 91.2503 80.4714 91.2503 81.0331C91.2503 81.5369 91.1812 82.0072 91.043 82.444C90.9092 82.8765 90.7153 83.2532 90.4612 83.5741C90.2071 83.8906 89.8995 84.1403 89.5384 84.3231C89.1773 84.5014 88.7694 84.5905 88.3147 84.5905C87.9135 84.5905 87.5725 84.5259 87.2916 84.3966C87.0152 84.2673 86.7633 84.089 86.536 83.8617V86.7571H85.0983V77.6696H85.9676C86.1638 77.6696 86.2886 77.761 86.3421 77.9438L86.4624 78.6593ZM97.4153 82.7784C97.6159 83.0369 97.8343 83.2197 98.0706 83.3267C98.3113 83.4292 98.5766 83.4805 98.8663 83.4805C99.428 83.4805 99.8649 83.2754 100.177 82.8653C100.493 82.4552 100.652 81.8445 100.652 81.0331C100.652 80.6141 100.616 80.2574 100.545 79.9632C100.473 79.6645 100.371 79.4216 100.237 79.2343C100.103 79.0471 99.9407 78.9111 99.749 78.8264C99.5573 78.7417 99.3411 78.6994 99.1004 78.6994C98.7348 78.6994 98.4183 78.7796 98.1508 78.9401C97.8878 79.0961 97.6426 79.3213 97.4153 79.6155V82.7784ZM97.3417 78.6593C97.627 78.3249 97.9502 78.0552 98.3113 77.8501C98.6769 77.6451 99.1004 77.5425 99.5818 77.5425C99.9652 77.5425 100.313 77.6206 100.625 77.7766C100.937 77.9282 101.205 78.1511 101.427 78.4453C101.65 78.7395 101.822 79.1051 101.942 79.5419C102.067 79.9743 102.13 80.4714 102.13 81.0331C102.13 81.5369 102.06 82.0072 101.922 82.444C101.788 82.8765 101.595 83.2532 101.34 83.5741C101.086 83.8906 100.779 84.1403 100.418 84.3231C100.057 84.5014 99.6487 84.5905 99.194 84.5905C98.7928 84.5905 98.4517 84.5259 98.1709 84.3966C97.8945 84.2673 97.6426 84.089 97.4153 83.8617V86.7571H95.9776V77.6696H96.8469C97.043 77.6696 97.1678 77.761 97.2213 77.9438L97.3417 78.6593ZM104.964 78.4787C105.245 78.2023 105.553 77.9817 105.887 77.8167C106.221 77.6473 106.611 77.5626 107.057 77.5626C107.432 77.5626 107.759 77.625 108.04 77.7498C108.325 77.8747 108.564 78.0508 108.756 78.2781C108.952 78.5055 109.099 78.7796 109.197 79.1006C109.295 79.4171 109.344 79.7671 109.344 80.1504V84.4902H107.913V80.1504C107.913 79.6913 107.806 79.3346 107.592 79.0805C107.383 78.8264 107.062 78.6994 106.629 78.6994C106.308 78.6994 106.01 78.7729 105.733 78.92C105.461 79.0672 105.205 79.2678 104.964 79.5219V84.4902H103.526V74.5936H104.964V78.4787ZM113.972 77.5626C114.476 77.5626 114.93 77.6451 115.336 77.81C115.746 77.975 116.094 78.209 116.379 78.5121C116.669 78.8153 116.892 79.1831 117.048 79.6155C117.204 80.0479 117.282 80.5338 117.282 81.0732C117.282 81.6126 117.204 82.0986 117.048 82.531C116.892 82.9634 116.669 83.3334 116.379 83.641C116.094 83.9441 115.746 84.1782 115.336 84.3431C114.93 84.5081 114.476 84.5905 113.972 84.5905C113.464 84.5905 113.005 84.5081 112.595 84.3431C112.189 84.1782 111.841 83.9441 111.551 83.641C111.262 83.3334 111.039 82.9634 110.883 82.531C110.727 82.0986 110.649 81.6126 110.649 81.0732C110.649 80.5338 110.727 80.0479 110.883 79.6155C111.039 79.1831 111.262 78.8153 111.551 78.5121C111.841 78.209 112.189 77.975 112.595 77.81C113.005 77.6451 113.464 77.5626 113.972 77.5626ZM113.972 83.4671C114.587 83.4671 115.044 83.2621 115.343 82.8519C115.646 82.4374 115.798 81.8467 115.798 81.0799C115.798 80.3132 115.646 79.7225 115.343 79.3079C115.044 78.8888 114.587 78.6793 113.972 78.6793C113.348 78.6793 112.884 78.8888 112.581 79.3079C112.278 79.7225 112.126 80.3132 112.126 81.0799C112.126 81.8467 112.278 82.4374 112.581 82.8519C112.884 83.2621 113.348 83.4671 113.972 83.4671ZM120.719 84.5972C120.153 84.5972 119.716 84.439 119.409 84.1225C119.106 83.8015 118.954 83.3512 118.954 82.7717V78.7997H118.205C118.125 78.7997 118.056 78.7752 117.998 78.7261C117.94 78.6726 117.911 78.5946 117.911 78.4921V77.9103L119.014 77.7498L119.329 75.7772C119.351 75.7014 119.389 75.6412 119.442 75.5967C119.496 75.5476 119.567 75.5231 119.656 75.5231H120.392V77.7632H122.284V78.7997H120.392V82.6714C120.392 82.9166 120.452 83.1038 120.572 83.2331C120.693 83.3624 120.853 83.427 121.054 83.427C121.165 83.427 121.261 83.4136 121.341 83.3869C121.422 83.3557 121.491 83.3245 121.549 83.2933C121.607 83.2576 121.656 83.2264 121.696 83.1997C121.74 83.1685 121.783 83.1529 121.823 83.1529C121.903 83.1529 121.968 83.1974 122.017 83.2866L122.445 83.9887C122.222 84.1849 121.959 84.3364 121.656 84.4434C121.352 84.546 121.04 84.5972 120.719 84.5972ZM126.314 77.5626C126.818 77.5626 127.273 77.6451 127.678 77.81C128.088 77.975 128.436 78.209 128.721 78.5121C129.011 78.8153 129.234 79.1831 129.39 79.6155C129.546 80.0479 129.624 80.5338 129.624 81.0732C129.624 81.6126 129.546 82.0986 129.39 82.531C129.234 82.9634 129.011 83.3334 128.721 83.641C128.436 83.9441 128.088 84.1782 127.678 84.3431C127.273 84.5081 126.818 84.5905 126.314 84.5905C125.806 84.5905 125.347 84.5081 124.937 84.3431C124.531 84.1782 124.183 83.9441 123.893 83.641C123.604 83.3334 123.381 82.9634 123.225 82.531C123.069 82.0986 122.991 81.6126 122.991 81.0732C122.991 80.5338 123.069 80.0479 123.225 79.6155C123.381 79.1831 123.604 78.8153 123.893 78.5121C124.183 78.209 124.531 77.975 124.937 77.81C125.347 77.6451 125.806 77.5626 126.314 77.5626ZM126.314 83.4671C126.929 83.4671 127.386 83.2621 127.685 82.8519C127.988 82.4374 128.14 81.8467 128.14 81.0799C128.14 80.3132 127.988 79.7225 127.685 79.3079C127.386 78.8888 126.929 78.6793 126.314 78.6793C125.69 78.6793 125.226 78.8888 124.923 79.3079C124.62 79.7225 124.468 80.3132 124.468 81.0799C124.468 81.8467 124.62 82.4374 124.923 82.8519C125.226 83.2621 125.69 83.4671 126.314 83.4671Z" fill="#454545"/>
<path d="M4.10849 92.7883C4.51956 92.7883 4.89061 92.8556 5.22164 92.9902C5.55632 93.1248 5.84006 93.3158 6.07288 93.5632C6.30933 93.8106 6.49122 94.1107 6.61854 94.4635C6.74586 94.8164 6.80952 95.2129 6.80952 95.6531C6.80952 96.0932 6.74586 96.4898 6.61854 96.8426C6.49122 97.1955 6.30933 97.4974 6.07288 97.7484C5.84006 97.9958 5.55632 98.1868 5.22164 98.3214C4.89061 98.456 4.51956 98.5233 4.10849 98.5233C3.69379 98.5233 3.3191 98.456 2.98443 98.3214C2.65339 98.1868 2.36965 97.9958 2.1332 97.7484C1.89674 97.4974 1.71485 97.1955 1.58753 96.8426C1.46021 96.4898 1.39655 96.0932 1.39655 95.6531C1.39655 95.2129 1.46021 94.8164 1.58753 94.4635C1.71485 94.1107 1.89674 93.8106 2.1332 93.5632C2.36965 93.3158 2.65339 93.1248 2.98443 92.9902C3.3191 92.8556 3.69379 92.7883 4.10849 92.7883ZM4.10849 97.6065C4.6105 97.6065 4.98337 97.4392 5.2271 97.1045C5.47447 96.7662 5.59815 96.2842 5.59815 95.6585C5.59815 95.0328 5.47447 94.5508 5.2271 94.2125C4.98337 93.8706 4.6105 93.6996 4.10849 93.6996C3.59921 93.6996 3.22088 93.8706 2.97352 94.2125C2.72615 94.5508 2.60247 95.0328 2.60247 95.6585C2.60247 96.2842 2.72615 96.7662 2.97352 97.1045C3.22088 97.4392 3.59921 97.6065 4.10849 97.6065ZM9.04444 93.907C9.21905 93.5541 9.43004 93.2776 9.6774 93.0775C9.92477 92.8738 10.2212 92.772 10.5668 92.772C10.6869 92.772 10.7996 92.7865 10.9051 92.8156C11.0106 92.8411 11.1052 92.8811 11.1889 92.9357L11.107 93.8196C11.0925 93.8815 11.0688 93.9251 11.0361 93.9506C11.007 93.9724 10.967 93.9833 10.9161 93.9833C10.8615 93.9833 10.7833 93.9743 10.6814 93.9561C10.5796 93.9342 10.4723 93.9233 10.3595 93.9233C10.1958 93.9233 10.0503 93.947 9.92295 93.9943C9.79927 94.0415 9.6865 94.1107 9.58464 94.2016C9.48642 94.2926 9.39912 94.4035 9.32272 94.5345C9.24633 94.6654 9.17539 94.8146 9.10992 94.9819V98.4414H7.93674V92.8756H8.61882C8.7425 92.8756 8.82799 92.8993 8.87528 92.9466C8.92257 92.9902 8.95531 93.0685 8.9735 93.1812L9.04444 93.907Z" fill="#454545"/>
<path d="M18.3827 93.967C18.3463 94.0143 18.3117 94.0506 18.279 94.0761C18.2463 94.1016 18.199 94.1143 18.1371 94.1143C18.0753 94.1143 18.0098 94.0925 17.9407 94.0488C17.8752 94.0052 17.7952 93.9579 17.7006 93.907C17.6097 93.8524 17.4987 93.8033 17.3677 93.7596C17.2368 93.716 17.0731 93.6941 16.8767 93.6941C16.622 93.6941 16.3983 93.7396 16.2055 93.8306C16.0163 93.9215 15.8563 94.0525 15.7253 94.2234C15.598 94.3908 15.5016 94.5963 15.4361 94.84C15.3743 95.0801 15.3433 95.3511 15.3433 95.6531C15.3433 95.9659 15.3779 96.2442 15.447 96.4879C15.5161 96.7317 15.6144 96.9372 15.7417 97.1045C15.8726 97.2719 16.0291 97.3992 16.2109 97.4865C16.3965 97.5738 16.6038 97.6175 16.833 97.6175C17.0585 97.6175 17.2422 97.5902 17.3841 97.5356C17.526 97.481 17.6442 97.421 17.7388 97.3555C17.8334 97.2901 17.9134 97.23 17.9789 97.1755C18.048 97.1209 18.1208 97.0936 18.1972 97.0936C18.2917 97.0936 18.3645 97.13 18.4154 97.2028L18.7483 97.6338C18.6137 97.7975 18.4645 97.9358 18.3008 98.0485C18.1371 98.1613 17.9643 98.2541 17.7825 98.3268C17.6006 98.3959 17.4114 98.445 17.215 98.4741C17.0185 98.5069 16.8203 98.5233 16.6202 98.5233C16.2746 98.5233 15.9508 98.4596 15.6489 98.3323C15.3506 98.2013 15.0887 98.014 14.8632 97.7702C14.6413 97.5229 14.4648 97.2228 14.3339 96.8699C14.2065 96.5134 14.1429 96.1078 14.1429 95.6531C14.1429 95.242 14.2011 94.8619 14.3175 94.5126C14.4339 94.1598 14.6031 93.856 14.825 93.6014C15.0505 93.3467 15.3288 93.1485 15.6598 93.0066C15.9909 92.8611 16.3728 92.7883 16.8057 92.7883C17.2095 92.7883 17.5642 92.8538 17.8698 92.9848C18.179 93.1157 18.4536 93.3013 18.6937 93.5414L18.3827 93.967ZM20.8651 93.5359C21.0943 93.3104 21.3453 93.1303 21.6181 92.9957C21.8909 92.8575 22.2093 92.7883 22.573 92.7883C22.8786 92.7883 23.146 92.8393 23.3751 92.9411C23.608 93.043 23.8026 93.1867 23.959 93.3722C24.1191 93.5577 24.2391 93.7814 24.3191 94.0434C24.3992 94.3016 24.4392 94.5872 24.4392 94.9001V98.4414H23.2715V94.9001C23.2715 94.5254 23.1842 94.2343 23.0096 94.027C22.8386 93.8196 22.5767 93.716 22.2238 93.716C21.9619 93.716 21.7182 93.776 21.4926 93.896C21.2707 94.0161 21.0615 94.1798 20.8651 94.3871V98.4414H19.6919V90.3656H20.8651V93.5359ZM28.2157 92.7883C28.6268 92.7883 28.9978 92.8556 29.3288 92.9902C29.6635 93.1248 29.9473 93.3158 30.1801 93.5632C30.4165 93.8106 30.5984 94.1107 30.7257 94.4635C30.8531 94.8164 30.9167 95.2129 30.9167 95.6531C30.9167 96.0932 30.8531 96.4898 30.7257 96.8426C30.5984 97.1955 30.4165 97.4974 30.1801 97.7484C29.9473 97.9958 29.6635 98.1868 29.3288 98.3214C28.9978 98.456 28.6268 98.5233 28.2157 98.5233C27.801 98.5233 27.4263 98.456 27.0916 98.3214C26.7606 98.1868 26.4768 97.9958 26.2404 97.7484C26.0039 97.4974 25.822 97.1955 25.6947 96.8426C25.5674 96.4898 25.5037 96.0932 25.5037 95.6531C25.5037 95.2129 25.5674 94.8164 25.6947 94.4635C25.822 94.1107 26.0039 93.8106 26.2404 93.5632C26.4768 93.3158 26.7606 93.1248 27.0916 92.9902C27.4263 92.8556 27.801 92.7883 28.2157 92.7883ZM28.2157 97.6065C28.7177 97.6065 29.0906 97.4392 29.3343 97.1045C29.5817 96.7662 29.7053 96.2842 29.7053 95.6585C29.7053 95.0328 29.5817 94.5508 29.3343 94.2125C29.0906 93.8706 28.7177 93.6996 28.2157 93.6996C27.7064 93.6996 27.3281 93.8706 27.0807 94.2125C26.8333 94.5508 26.7097 95.0328 26.7097 95.6585C26.7097 96.2842 26.8333 96.7662 27.0807 97.1045C27.3281 97.4392 27.7064 97.6065 28.2157 97.6065ZM34.4503 92.7883C34.8614 92.7883 35.2324 92.8556 35.5635 92.9902C35.8981 93.1248 36.1819 93.3158 36.4147 93.5632C36.6511 93.8106 36.833 94.1107 36.9604 94.4635C37.0877 94.8164 37.1513 95.2129 37.1513 95.6531C37.1513 96.0932 37.0877 96.4898 36.9604 96.8426C36.833 97.1955 36.6511 97.4974 36.4147 97.7484C36.1819 97.9958 35.8981 98.1868 35.5635 98.3214C35.2324 98.456 34.8614 98.5233 34.4503 98.5233C34.0356 98.5233 33.6609 98.456 33.3262 98.3214C32.9952 98.1868 32.7115 97.9958 32.475 97.7484C32.2386 97.4974 32.0567 97.1955 31.9293 96.8426C31.802 96.4898 31.7384 96.0932 31.7384 95.6531C31.7384 95.2129 31.802 94.8164 31.9293 94.4635C32.0567 94.1107 32.2386 93.8106 32.475 93.5632C32.7115 93.3158 32.9952 93.1248 33.3262 92.9902C33.6609 92.8556 34.0356 92.7883 34.4503 92.7883ZM34.4503 97.6065C34.9523 97.6065 35.3252 97.4392 35.5689 97.1045C35.8163 96.7662 35.94 96.2842 35.94 95.6585C35.94 95.0328 35.8163 94.5508 35.5689 94.2125C35.3252 93.8706 34.9523 93.6996 34.4503 93.6996C33.941 93.6996 33.5627 93.8706 33.3153 94.2125C33.068 94.5508 32.9443 95.0328 32.9443 95.6585C32.9443 96.2842 33.068 96.7662 33.3153 97.1045C33.5627 97.4392 33.941 97.6065 34.4503 97.6065ZM41.6016 93.8851C41.5725 93.9361 41.5398 93.9724 41.5034 93.9943C41.467 94.0161 41.4216 94.027 41.367 94.027C41.3052 94.027 41.2379 94.0088 41.1651 93.9724C41.0923 93.9324 41.0069 93.8888 40.9086 93.8415C40.8104 93.7942 40.694 93.7523 40.5594 93.716C40.4285 93.676 40.2739 93.6559 40.0956 93.6559C39.9501 93.6559 39.8173 93.6741 39.6973 93.7105C39.5809 93.7433 39.4808 93.7924 39.3972 93.8578C39.3171 93.9197 39.2553 93.9943 39.2116 94.0816C39.168 94.1652 39.1462 94.2562 39.1462 94.3544C39.1462 94.4854 39.1862 94.5945 39.2662 94.6818C39.3462 94.7691 39.4517 94.8455 39.5827 94.911C39.7136 94.9728 39.8628 95.0292 40.0301 95.0801C40.1975 95.1311 40.3684 95.1856 40.543 95.2438C40.7177 95.302 40.8886 95.3693 41.056 95.4457C41.2233 95.5221 41.3725 95.6167 41.5034 95.7295C41.6344 95.8386 41.7399 95.9732 41.8199 96.1333C41.8999 96.2897 41.9399 96.4807 41.9399 96.7062C41.9399 96.9681 41.8927 97.21 41.7981 97.4319C41.7035 97.6538 41.5653 97.8466 41.3834 98.0103C41.2015 98.174 40.9741 98.3014 40.7013 98.3923C40.4321 98.4832 40.1229 98.5287 39.7737 98.5287C39.5809 98.5287 39.3935 98.5105 39.2116 98.4741C39.0334 98.4414 38.8624 98.3959 38.6987 98.3377C38.5386 98.2759 38.3877 98.2031 38.2458 98.1195C38.1076 98.0358 37.9839 97.9449 37.8748 97.8466L38.1476 97.3992C38.1803 97.3446 38.2203 97.3028 38.2676 97.2737C38.3186 97.2409 38.3804 97.2246 38.4532 97.2246C38.5296 97.2246 38.6041 97.25 38.6769 97.301C38.7533 97.3483 38.8406 97.401 38.9388 97.4592C39.0407 97.5174 39.1625 97.572 39.3044 97.6229C39.4463 97.6702 39.6227 97.6938 39.8337 97.6938C40.0083 97.6938 40.1593 97.6738 40.2866 97.6338C40.4139 97.5902 40.5194 97.532 40.6031 97.4592C40.6867 97.3865 40.7486 97.3046 40.7886 97.2137C40.8286 97.1191 40.8486 97.019 40.8486 96.9136C40.8486 96.7717 40.8086 96.6553 40.7286 96.5643C40.6485 96.4734 40.5412 96.3952 40.4066 96.3297C40.2757 96.2642 40.1247 96.206 39.9537 96.1551C39.7864 96.1042 39.6154 96.0496 39.4408 95.9914C39.2662 95.9332 39.0934 95.8659 38.9224 95.7895C38.7551 95.7131 38.6041 95.6167 38.4695 95.5003C38.3386 95.3802 38.2331 95.2365 38.153 95.0692C38.073 94.8982 38.033 94.6909 38.033 94.4472C38.033 94.2253 38.0767 94.0143 38.164 93.8142C38.2549 93.6141 38.3859 93.4377 38.5568 93.2849C38.7314 93.1321 38.9443 93.0121 39.1953 92.9248C39.4499 92.8338 39.7427 92.7883 40.0738 92.7883C40.4485 92.7883 40.7886 92.8484 41.0942 92.9684C41.3997 93.0885 41.6562 93.2522 41.8636 93.4595L41.6016 93.8851ZM46.6929 95.031C46.6929 94.8346 46.6638 94.6527 46.6056 94.4854C46.551 94.3144 46.4692 94.1671 46.3601 94.0434C46.2509 93.916 46.1145 93.8178 45.9508 93.7487C45.7908 93.676 45.6052 93.6396 45.3942 93.6396C44.9686 93.6396 44.634 93.7614 44.3902 94.0052C44.1465 94.2489 43.9919 94.5908 43.9264 95.031H46.6929ZM43.8937 95.7513C43.9082 96.0678 43.9573 96.3424 44.041 96.5752C44.1247 96.8044 44.2356 96.9954 44.3739 97.1482C44.5157 97.301 44.6831 97.4156 44.8759 97.492C45.0723 97.5647 45.2906 97.6011 45.5307 97.6011C45.7598 97.6011 45.9581 97.5756 46.1254 97.5247C46.2928 97.4701 46.4383 97.4119 46.562 97.3501C46.6856 97.2846 46.7911 97.2264 46.8784 97.1755C46.9658 97.1209 47.0458 97.0936 47.1185 97.0936C47.2131 97.0936 47.2859 97.13 47.3368 97.2028L47.6697 97.6338C47.5314 97.7975 47.375 97.9358 47.2004 98.0485C47.0258 98.1613 46.8402 98.2541 46.6438 98.3268C46.4474 98.3959 46.2455 98.445 46.0381 98.4741C45.8308 98.5069 45.6289 98.5233 45.4324 98.5233C45.0468 98.5233 44.6885 98.4596 44.3575 98.3323C44.0301 98.2013 43.7445 98.0103 43.5008 97.7593C43.2607 97.5083 43.0715 97.1973 42.9333 96.8262C42.7987 96.4552 42.7314 96.0278 42.7314 95.5439C42.7314 95.1583 42.7914 94.7982 42.9115 94.4635C43.0352 94.1289 43.2098 93.8378 43.4353 93.5905C43.6645 93.3431 43.941 93.1485 44.2647 93.0066C44.5921 92.8611 44.9614 92.7883 45.3724 92.7883C45.7144 92.7883 46.0309 92.8447 46.3219 92.9575C46.6129 93.0666 46.8639 93.2285 47.0749 93.4431C47.2859 93.6578 47.4496 93.9215 47.566 94.2343C47.686 94.5436 47.746 94.8964 47.746 95.2929C47.746 95.4748 47.726 95.5967 47.686 95.6585C47.646 95.7204 47.5733 95.7513 47.4678 95.7513H43.8937ZM51.9343 98.4414V93.8087L51.3886 93.7323C51.2977 93.7142 51.2231 93.6814 51.1649 93.6341C51.1103 93.5868 51.083 93.5195 51.083 93.4322V92.952H51.9343V92.4828C51.9343 92.1663 51.9797 91.8825 52.0707 91.6315C52.1653 91.3805 52.298 91.1677 52.469 90.9931C52.6436 90.8185 52.8546 90.6857 53.102 90.5948C53.3493 90.5002 53.6276 90.4529 53.9368 90.4529C54.0642 90.4529 54.1842 90.462 54.297 90.4802C54.4134 90.4984 54.5262 90.5257 54.6353 90.562L54.6135 91.1514C54.6062 91.2496 54.5571 91.3078 54.4661 91.326C54.3788 91.3442 54.2679 91.3533 54.1333 91.3533C53.9696 91.3533 53.8223 91.3733 53.6913 91.4133C53.5603 91.4497 53.4476 91.5133 53.353 91.6043C53.262 91.6952 53.1911 91.8152 53.1402 91.9644C53.0929 92.1135 53.0692 92.2991 53.0692 92.521V92.952H54.5916V93.7978H53.1074V98.4414H51.9343ZM56.5341 93.907C56.7087 93.5541 56.9197 93.2776 57.1671 93.0775C57.4144 92.8738 57.7109 92.772 58.0565 92.772C58.1766 92.772 58.2893 92.7865 58.3948 92.8156C58.5003 92.8411 58.5949 92.8811 58.6786 92.9357L58.5967 93.8196C58.5822 93.8815 58.5585 93.9251 58.5258 93.9506C58.4967 93.9724 58.4567 93.9833 58.4057 93.9833C58.3512 93.9833 58.273 93.9743 58.1711 93.9561C58.0692 93.9342 57.9619 93.9233 57.8492 93.9233C57.6855 93.9233 57.54 93.947 57.4126 93.9943C57.2889 94.0415 57.1762 94.1107 57.0743 94.2016C56.9761 94.2926 56.8888 94.4035 56.8124 94.5345C56.736 94.6654 56.6651 94.8146 56.5996 94.9819V98.4414H55.4264V92.8756H56.1085C56.2322 92.8756 56.3177 92.8993 56.365 92.9466C56.4122 92.9902 56.445 93.0685 56.4632 93.1812L56.5341 93.907ZM61.6695 92.7883C62.0805 92.7883 62.4516 92.8556 62.7826 92.9902C63.1173 93.1248 63.401 93.3158 63.6339 93.5632C63.8703 93.8106 64.0522 94.1107 64.1795 94.4635C64.3068 94.8164 64.3705 95.2129 64.3705 95.6531C64.3705 96.0932 64.3068 96.4898 64.1795 96.8426C64.0522 97.1955 63.8703 97.4974 63.6339 97.7484C63.401 97.9958 63.1173 98.1868 62.7826 98.3214C62.4516 98.456 62.0805 98.5233 61.6695 98.5233C61.2548 98.5233 60.8801 98.456 60.5454 98.3214C60.2144 98.1868 59.9306 97.9958 59.6942 97.7484C59.4577 97.4974 59.2758 97.1955 59.1485 96.8426C59.0212 96.4898 58.9575 96.0932 58.9575 95.6531C58.9575 95.2129 59.0212 94.8164 59.1485 94.4635C59.2758 94.1107 59.4577 93.8106 59.6942 93.5632C59.9306 93.3158 60.2144 93.1248 60.5454 92.9902C60.8801 92.8556 61.2548 92.7883 61.6695 92.7883ZM61.6695 97.6065C62.1715 97.6065 62.5444 97.4392 62.7881 97.1045C63.0355 96.7662 63.1591 96.2842 63.1591 95.6585C63.1591 95.0328 63.0355 94.5508 62.7881 94.2125C62.5444 93.8706 62.1715 93.6996 61.6695 93.6996C61.1602 93.6996 60.7819 93.8706 60.5345 94.2125C60.2871 94.5508 60.1635 95.0328 60.1635 95.6585C60.1635 96.2842 60.2871 96.7662 60.5345 97.1045C60.7819 97.4392 61.1602 97.6065 61.6695 97.6065ZM65.4977 98.4414V92.8756H66.2071C66.3671 92.8756 66.469 92.9502 66.5127 93.0994L66.589 93.585C66.6909 93.4686 66.7964 93.3631 66.9055 93.2685C67.0147 93.1703 67.1311 93.0866 67.2548 93.0175C67.3821 92.9448 67.5167 92.8884 67.6585 92.8484C67.8041 92.8084 67.9605 92.7883 68.1278 92.7883C68.3061 92.7883 68.4698 92.8138 68.6189 92.8647C68.7681 92.9157 68.899 92.9884 69.0118 93.083C69.1282 93.1776 69.2282 93.2922 69.3119 93.4268C69.3956 93.5614 69.4647 93.7123 69.5193 93.8797C69.6029 93.6869 69.7084 93.5214 69.8357 93.3831C69.9631 93.2449 70.1049 93.1321 70.2614 93.0448C70.4178 92.9575 70.5833 92.8938 70.7579 92.8538C70.9362 92.8102 71.1162 92.7883 71.2981 92.7883C71.5964 92.7883 71.862 92.8356 72.0948 92.9302C72.3312 93.0248 72.5295 93.163 72.6896 93.3449C72.8533 93.5232 72.9769 93.7433 73.0606 94.0052C73.1443 94.2671 73.1861 94.5654 73.1861 94.9001V98.4414H72.0129V94.9001C72.0129 94.5072 71.9274 94.2125 71.7565 94.0161C71.5891 93.816 71.3399 93.716 71.0089 93.716C70.8598 93.716 70.7197 93.7414 70.5888 93.7924C70.4578 93.8433 70.3432 93.9179 70.245 94.0161C70.1468 94.1143 70.0686 94.238 70.0104 94.3871C69.9558 94.5326 69.9285 94.7036 69.9285 94.9001V98.4414H68.7553V94.9001C68.7553 94.4926 68.6735 94.1943 68.5098 94.0052C68.3461 93.8124 68.106 93.716 67.7895 93.716C67.5712 93.716 67.3693 93.7724 67.1838 93.8851C66.9983 93.9943 66.8273 94.1452 66.6709 94.338V98.4414H65.4977ZM81.9354 92.8756L78.8688 100.024C78.8287 100.107 78.7796 100.173 78.7214 100.22C78.6669 100.268 78.5814 100.291 78.465 100.291H77.5974L78.6232 98.0649L76.3533 92.8756H77.3736C77.4719 92.8756 77.5464 92.8993 77.5974 92.9466C77.6519 92.9902 77.6919 93.043 77.7174 93.1048L79.0434 96.2642C79.0761 96.3552 79.1052 96.4461 79.1307 96.537C79.1598 96.6244 79.1871 96.7153 79.2125 96.8099C79.2416 96.7153 79.2707 96.6225 79.2998 96.5316C79.3289 96.4406 79.3617 96.3497 79.3981 96.2588L80.6694 93.1048C80.6949 93.0393 80.7367 92.9848 80.7949 92.9411C80.8568 92.8975 80.9241 92.8756 80.9968 92.8756H81.9354ZM84.9454 92.7883C85.3565 92.7883 85.7275 92.8556 86.0585 92.9902C86.3932 93.1248 86.677 93.3158 86.9098 93.5632C87.1462 93.8106 87.3281 94.1107 87.4554 94.4635C87.5828 94.8164 87.6464 95.2129 87.6464 95.6531C87.6464 96.0932 87.5828 96.4898 87.4554 96.8426C87.3281 97.1955 87.1462 97.4974 86.9098 97.7484C86.677 97.9958 86.3932 98.1868 86.0585 98.3214C85.7275 98.456 85.3565 98.5233 84.9454 98.5233C84.5307 98.5233 84.156 98.456 83.8213 98.3214C83.4903 98.1868 83.2065 97.9958 82.9701 97.7484C82.7336 97.4974 82.5517 97.1955 82.4244 96.8426C82.2971 96.4898 82.2334 96.0932 82.2334 95.6531C82.2334 95.2129 82.2971 94.8164 82.4244 94.4635C82.5517 94.1107 82.7336 93.8106 82.9701 93.5632C83.2065 93.3158 83.4903 93.1248 83.8213 92.9902C84.156 92.8556 84.5307 92.7883 84.9454 92.7883ZM84.9454 97.6065C85.4474 97.6065 85.8203 97.4392 86.064 97.1045C86.3114 96.7662 86.435 96.2842 86.435 95.6585C86.435 95.0328 86.3114 94.5508 86.064 94.2125C85.8203 93.8706 85.4474 93.6996 84.9454 93.6996C84.4361 93.6996 84.0578 93.8706 83.8104 94.2125C83.563 94.5508 83.4394 95.0328 83.4394 95.6585C83.4394 96.2842 83.563 96.7662 83.8104 97.1045C84.0578 97.4392 84.4361 97.6065 84.9454 97.6065ZM93.4663 92.8756V98.4414H92.757C92.6005 98.4414 92.5005 98.3668 92.4569 98.2177L92.3695 97.6993C92.2531 97.823 92.1295 97.9358 91.9985 98.0376C91.8712 98.1395 91.7348 98.2268 91.5893 98.2995C91.4437 98.3723 91.2873 98.4287 91.12 98.4687C90.9563 98.5087 90.7799 98.5287 90.5907 98.5287C90.2851 98.5287 90.0159 98.4778 89.7831 98.3759C89.5503 98.2741 89.3539 98.1304 89.1938 97.9449C89.0374 97.7593 88.9191 97.5374 88.8391 97.2791C88.7591 97.0172 88.7191 96.7298 88.7191 96.417V92.8756H89.8922V96.417C89.8922 96.7917 89.9777 97.0827 90.1487 97.2901C90.3233 97.4974 90.5871 97.6011 90.9399 97.6011C91.1982 97.6011 91.4383 97.5429 91.6602 97.4265C91.8857 97.3064 92.0967 97.1427 92.2932 96.9354V92.8756H93.4663ZM95.9987 93.907C96.1733 93.5541 96.3843 93.2776 96.6317 93.0775C96.879 92.8738 97.1755 92.772 97.5211 92.772C97.6412 92.772 97.7539 92.7865 97.8594 92.8156C97.9649 92.8411 98.0595 92.8811 98.1432 92.9357L98.0613 93.8196C98.0468 93.8815 98.0231 93.9251 97.9904 93.9506C97.9613 93.9724 97.9213 93.9833 97.8703 93.9833C97.8158 93.9833 97.7376 93.9743 97.6357 93.9561C97.5338 93.9342 97.4265 93.9233 97.3138 93.9233C97.1501 93.9233 97.0046 93.947 96.8772 93.9943C96.7535 94.0415 96.6408 94.1107 96.5389 94.2016C96.4407 94.2926 96.3534 94.4035 96.277 94.5345C96.2006 94.6654 96.1297 94.8146 96.0642 94.9819V98.4414H94.891V92.8756H95.5731C95.6968 92.8756 95.7823 92.8993 95.8296 92.9466C95.8768 92.9902 95.9096 93.0685 95.9278 93.1812L95.9987 93.907ZM105.337 93.967C105.301 94.0143 105.266 94.0506 105.233 94.0761C105.201 94.1016 105.153 94.1143 105.091 94.1143C105.03 94.1143 104.964 94.0925 104.895 94.0488C104.829 94.0052 104.749 93.9579 104.655 93.907C104.564 93.8524 104.453 93.8033 104.322 93.7596C104.191 93.716 104.027 93.6941 103.831 93.6941C103.576 93.6941 103.353 93.7396 103.16 93.8306C102.971 93.9215 102.811 94.0525 102.68 94.2234C102.552 94.3908 102.456 94.5963 102.39 94.84C102.329 95.0801 102.298 95.3511 102.298 95.6531C102.298 95.9659 102.332 96.2442 102.401 96.4879C102.47 96.7317 102.569 96.9372 102.696 97.1045C102.827 97.2719 102.983 97.3992 103.165 97.4865C103.351 97.5738 103.558 97.6175 103.787 97.6175C104.013 97.6175 104.197 97.5902 104.338 97.5356C104.48 97.481 104.598 97.421 104.693 97.3555C104.788 97.2901 104.868 97.23 104.933 97.1755C105.002 97.1209 105.075 97.0936 105.151 97.0936C105.246 97.0936 105.319 97.13 105.37 97.2028L105.703 97.6338C105.568 97.7975 105.419 97.9358 105.255 98.0485C105.091 98.1613 104.919 98.2541 104.737 98.3268C104.555 98.3959 104.366 98.445 104.169 98.4741C103.973 98.5069 103.775 98.5233 103.574 98.5233C103.229 98.5233 102.905 98.4596 102.603 98.3323C102.305 98.2013 102.043 98.014 101.817 97.7702C101.596 97.5229 101.419 97.2228 101.288 96.8699C101.161 96.5134 101.097 96.1078 101.097 95.6531C101.097 95.242 101.155 94.8619 101.272 94.5126C101.388 94.1598 101.557 93.856 101.779 93.6014C102.005 93.3467 102.283 93.1485 102.614 93.0066C102.945 92.8611 103.327 92.7883 103.76 92.7883C104.164 92.7883 104.518 92.8538 104.824 92.9848C105.133 93.1157 105.408 93.3013 105.648 93.5414L105.337 93.967ZM108.957 92.7883C109.368 92.7883 109.739 92.8556 110.07 92.9902C110.404 93.1248 110.688 93.3158 110.921 93.5632C111.157 93.8106 111.339 94.1107 111.467 94.4635C111.594 94.8164 111.658 95.2129 111.658 95.6531C111.658 96.0932 111.594 96.4898 111.467 96.8426C111.339 97.1955 111.157 97.4974 110.921 97.7484C110.688 97.9958 110.404 98.1868 110.07 98.3214C109.739 98.456 109.368 98.5233 108.957 98.5233C108.542 98.5233 108.167 98.456 107.833 98.3214C107.502 98.1868 107.218 97.9958 106.981 97.7484C106.745 97.4974 106.563 97.1955 106.436 96.8426C106.308 96.4898 106.245 96.0932 106.245 95.6531C106.245 95.2129 106.308 94.8164 106.436 94.4635C106.563 94.1107 106.745 93.8106 106.981 93.5632C107.218 93.3158 107.502 93.1248 107.833 92.9902C108.167 92.8556 108.542 92.7883 108.957 92.7883ZM108.957 97.6065C109.459 97.6065 109.832 97.4392 110.075 97.1045C110.323 96.7662 110.446 96.2842 110.446 95.6585C110.446 95.0328 110.323 94.5508 110.075 94.2125C109.832 93.8706 109.459 93.6996 108.957 93.6996C108.447 93.6996 108.069 93.8706 107.822 94.2125C107.574 94.5508 107.451 95.0328 107.451 95.6585C107.451 96.2842 107.574 96.7662 107.822 97.1045C108.069 97.4392 108.447 97.6065 108.957 97.6065ZM112.785 98.4414V92.8756H113.494C113.654 92.8756 113.756 92.9502 113.8 93.0994L113.876 93.585C113.978 93.4686 114.084 93.3631 114.193 93.2685C114.302 93.1703 114.418 93.0866 114.542 93.0175C114.669 92.9448 114.804 92.8884 114.946 92.8484C115.091 92.8084 115.248 92.7883 115.415 92.7883C115.593 92.7883 115.757 92.8138 115.906 92.8647C116.055 92.9157 116.186 92.9884 116.299 93.083C116.415 93.1776 116.515 93.2922 116.599 93.4268C116.683 93.5614 116.752 93.7123 116.806 93.8797C116.89 93.6869 116.996 93.5214 117.123 93.3831C117.25 93.2449 117.392 93.1321 117.549 93.0448C117.705 92.9575 117.87 92.8938 118.045 92.8538C118.223 92.8102 118.403 92.7883 118.585 92.7883C118.884 92.7883 119.149 92.8356 119.382 92.9302C119.618 93.0248 119.817 93.163 119.977 93.3449C120.14 93.5232 120.264 93.7433 120.348 94.0052C120.431 94.2671 120.473 94.5654 120.473 94.9001V98.4414H119.3V94.9001C119.3 94.5072 119.215 94.2125 119.044 94.0161C118.876 93.816 118.627 93.716 118.296 93.716C118.147 93.716 118.007 93.7414 117.876 93.7924C117.745 93.8433 117.63 93.9179 117.532 94.0161C117.434 94.1143 117.356 94.238 117.298 94.3871C117.243 94.5326 117.216 94.7036 117.216 94.9001V98.4414H116.043V94.9001C116.043 94.4926 115.961 94.1943 115.797 94.0052C115.633 93.8124 115.393 93.716 115.077 93.716C114.858 93.716 114.657 93.7724 114.471 93.8851C114.285 93.9943 114.115 94.1452 113.958 94.338V98.4414H112.785ZM123.017 97.0445C123.181 97.2555 123.359 97.4046 123.552 97.492C123.748 97.5756 123.965 97.6175 124.201 97.6175C124.659 97.6175 125.016 97.4501 125.271 97.1154C125.529 96.7808 125.658 96.2824 125.658 95.6203C125.658 95.2784 125.629 94.9874 125.571 94.7473C125.512 94.5035 125.429 94.3053 125.32 94.1525C125.21 93.9997 125.078 93.8888 124.921 93.8196C124.765 93.7505 124.588 93.716 124.392 93.716C124.094 93.716 123.835 93.7814 123.617 93.9124C123.403 94.0397 123.202 94.2234 123.017 94.4635V97.0445ZM122.957 93.6832C123.19 93.4104 123.453 93.1903 123.748 93.023C124.046 92.8556 124.392 92.772 124.785 92.772C125.098 92.772 125.381 92.8356 125.636 92.963C125.891 93.0866 126.109 93.2685 126.291 93.5086C126.473 93.7487 126.613 94.047 126.711 94.4035C126.813 94.7564 126.864 95.162 126.864 95.6203C126.864 96.0314 126.807 96.4152 126.695 96.7717C126.586 97.1245 126.427 97.4319 126.22 97.6938C126.013 97.9521 125.762 98.1558 125.467 98.305C125.172 98.4505 124.839 98.5233 124.468 98.5233C124.141 98.5233 123.863 98.4705 123.634 98.365C123.408 98.2595 123.202 98.114 123.017 97.9285V100.291H121.844V92.8756H122.553C122.713 92.8756 122.815 92.9502 122.859 93.0994L122.957 93.6832ZM132.696 92.8756V98.4414H131.987C131.831 98.4414 131.731 98.3668 131.687 98.2177L131.6 97.6993C131.483 97.823 131.36 97.9358 131.229 98.0376C131.101 98.1395 130.965 98.2268 130.819 98.2995C130.674 98.3723 130.517 98.4287 130.35 98.4687C130.186 98.5087 130.01 98.5287 129.821 98.5287C129.515 98.5287 129.246 98.4778 129.013 98.3759C128.78 98.2741 128.584 98.1304 128.424 97.9449C128.268 97.7593 128.149 97.5374 128.069 97.2791C127.989 97.0172 127.949 96.7298 127.949 96.417V92.8756H129.122V96.417C129.122 96.7917 129.208 97.0827 129.379 97.2901C129.553 97.4974 129.817 97.6011 130.17 97.6011C130.428 97.6011 130.668 97.5429 130.89 97.4265C131.116 97.3064 131.327 97.1427 131.523 96.9354V92.8756H132.696ZM135.905 98.5287C135.443 98.5287 135.087 98.3996 134.836 98.1413C134.589 97.8794 134.465 97.512 134.465 97.0391V93.7978H133.854C133.788 93.7978 133.732 93.7778 133.685 93.7378C133.637 93.6941 133.614 93.6305 133.614 93.5468V93.0721L134.514 92.9411L134.77 91.3314C134.789 91.2696 134.82 91.2205 134.863 91.1841C134.907 91.1441 134.965 91.1241 135.038 91.1241H135.638V92.952H137.182V93.7978H135.638V96.9572C135.638 97.1573 135.687 97.3101 135.785 97.4156C135.884 97.5211 136.015 97.5738 136.178 97.5738C136.269 97.5738 136.347 97.5629 136.413 97.5411C136.478 97.5156 136.535 97.4901 136.582 97.4647C136.629 97.4356 136.669 97.4101 136.702 97.3883C136.739 97.3628 136.773 97.3501 136.806 97.3501C136.871 97.3501 136.924 97.3865 136.964 97.4592L137.313 98.0322C137.131 98.1922 136.917 98.3159 136.669 98.4032C136.422 98.4869 136.167 98.5287 135.905 98.5287ZM141.715 95.031C141.715 94.8346 141.686 94.6527 141.628 94.4854C141.573 94.3144 141.491 94.1671 141.382 94.0434C141.273 93.916 141.137 93.8178 140.973 93.7487C140.813 93.676 140.627 93.6396 140.416 93.6396C139.991 93.6396 139.656 93.7614 139.412 94.0052C139.168 94.2489 139.014 94.5908 138.948 95.031H141.715ZM138.916 95.7513C138.93 96.0678 138.979 96.3424 139.063 96.5752C139.147 96.8044 139.258 96.9954 139.396 97.1482C139.538 97.301 139.705 97.4156 139.898 97.492C140.094 97.5647 140.313 97.6011 140.553 97.6011C140.782 97.6011 140.98 97.5756 141.147 97.5247C141.315 97.4701 141.46 97.4119 141.584 97.3501C141.708 97.2846 141.813 97.2264 141.9 97.1755C141.988 97.1209 142.068 97.0936 142.141 97.0936C142.235 97.0936 142.308 97.13 142.359 97.2028L142.692 97.6338C142.553 97.7975 142.397 97.9358 142.222 98.0485C142.048 98.1613 141.862 98.2541 141.666 98.3268C141.469 98.3959 141.267 98.445 141.06 98.4741C140.853 98.5069 140.651 98.5233 140.454 98.5233C140.069 98.5233 139.711 98.4596 139.379 98.3323C139.052 98.2013 138.767 98.0103 138.523 97.7593C138.283 97.5083 138.094 97.1973 137.955 96.8262C137.821 96.4552 137.753 96.0278 137.753 95.5439C137.753 95.1583 137.813 94.7982 137.933 94.4635C138.057 94.1289 138.232 93.8378 138.457 93.5905C138.686 93.3431 138.963 93.1485 139.287 93.0066C139.614 92.8611 139.983 92.7883 140.394 92.7883C140.736 92.7883 141.053 92.8447 141.344 92.9575C141.635 93.0666 141.886 93.2285 142.097 93.4431C142.308 93.6578 142.472 93.9215 142.588 94.2343C142.708 94.5436 142.768 94.8964 142.768 95.2929C142.768 95.4748 142.748 95.5967 142.708 95.6585C142.668 95.7204 142.595 95.7513 142.49 95.7513H138.916ZM144.97 93.907C145.144 93.5541 145.355 93.2776 145.603 93.0775C145.85 92.8738 146.147 92.772 146.492 92.772C146.612 92.772 146.725 92.7865 146.83 92.8156C146.936 92.8411 147.031 92.8811 147.114 92.9357L147.032 93.8196C147.018 93.8815 146.994 93.9251 146.961 93.9506C146.932 93.9724 146.892 93.9833 146.841 93.9833C146.787 93.9833 146.709 93.9743 146.607 93.9561C146.505 93.9342 146.398 93.9233 146.285 93.9233C146.121 93.9233 145.976 93.947 145.848 93.9943C145.725 94.0415 145.612 94.1107 145.51 94.2016C145.412 94.2926 145.324 94.4035 145.248 94.5345C145.172 94.6654 145.101 94.8146 145.035 94.9819V98.4414H143.862V92.8756H144.544C144.668 92.8756 144.753 92.8993 144.801 92.9466C144.848 92.9902 144.881 93.0685 144.899 93.1812L144.97 93.907Z" fill="#9C1421"/>
<defs>
<clipPath id="clip0_3350_10">
<rect width="67.0801" height="67.0801" fill="white" transform="translate(38.7637 0.134766)"/>
</clipPath>
</defs>
</svg>
