<svg width="15" height="15" viewBox="0 0 15 15" fill="none" xmlns="http://www.w3.org/2000/svg">
<g clip-path="url(#clip0_510_3282)">
<path d="M10.2259 2.34452C10.38 2.1904 10.563 2.06815 10.7644 1.98474C10.9657 1.90133 11.1816 1.8584 11.3995 1.8584C11.6175 1.8584 11.8333 1.90133 12.0347 1.98474C12.236 2.06815 12.419 2.1904 12.5731 2.34452C12.7273 2.49864 12.8495 2.68161 12.9329 2.88298C13.0163 3.08435 13.0593 3.30018 13.0593 3.51814C13.0593 3.73609 13.0163 3.95192 12.9329 4.15329C12.8495 4.35466 12.7273 4.53763 12.5731 4.69175L4.65126 12.6136L1.42383 13.4938L2.30404 10.2664L10.2259 2.34452Z" stroke="black" stroke-width="1.17361" stroke-linecap="round" stroke-linejoin="round"/>
</g>
<defs>
<clipPath id="clip0_510_3282">
<rect width="14.0833" height="14.0833" fill="white" transform="translate(0.25 0.583984)"/>
</clipPath>
</defs>
</svg>
