<svg width="26" height="26" viewBox="0 0 26 26" fill="none" xmlns="http://www.w3.org/2000/svg">
<path d="M18.1644 2.89258H7.66214C4.76202 2.89258 2.41101 5.24359 2.41101 8.14371V18.646C2.41101 21.5461 4.76202 23.8971 7.66214 23.8971H18.1644C21.0645 23.8971 23.4155 21.5461 23.4155 18.646V8.14371C23.4155 5.24359 21.0645 2.89258 18.1644 2.89258Z" stroke="white" stroke-width="1.80039" stroke-linecap="round" stroke-linejoin="round"/>
<path d="M17.1142 12.7331C17.2438 13.6072 17.0945 14.4999 16.6875 15.2842C16.2806 16.0685 15.6367 16.7045 14.8474 17.1017C14.0581 17.499 13.1637 17.6373 12.2913 17.4969C11.4189 17.3565 10.613 16.9446 9.98823 16.3198C9.36343 15.695 8.95155 14.8891 8.81117 14.0167C8.67079 13.1444 8.80907 12.2499 9.20633 11.4607C9.60359 10.6714 10.2396 10.0275 11.0239 9.62053C11.8082 9.21356 12.7009 9.06427 13.5749 9.19388C14.4665 9.32609 15.2919 9.74154 15.9292 10.3789C16.5665 11.0162 16.982 11.8416 17.1142 12.7331Z" stroke="white" stroke-width="1.80039" stroke-linecap="round" stroke-linejoin="round"/>
<path d="M18.6895 7.61914H18.7" stroke="white" stroke-width="1.80039" stroke-linecap="round" stroke-linejoin="round"/>
</svg>
