<svg width="28" height="28" viewBox="0 0 28 28" fill="none" xmlns="http://www.w3.org/2000/svg">
<path d="M18.9316 9.19531C20.7222 9.19531 22.4395 9.90662 23.7056 11.1728C24.9718 12.4389 25.6831 14.1562 25.6831 15.9468V23.8235H21.1821V15.9468C21.1821 15.3499 20.945 14.7775 20.523 14.3554C20.1009 13.9334 19.5285 13.6963 18.9316 13.6963C18.3348 13.6963 17.7623 13.9334 17.3403 14.3554C16.9183 14.7775 16.6811 15.3499 16.6811 15.9468V23.8235H12.1802V15.9468C12.1802 14.1562 12.8915 12.4389 14.1576 11.1728C15.4238 9.90662 17.141 9.19531 18.9316 9.19531Z" stroke="white" stroke-width="1.80039" stroke-linecap="round" stroke-linejoin="round"/>
<path d="M7.67919 10.3203H3.17822V23.8232H7.67919V10.3203Z" stroke="white" stroke-width="1.80039" stroke-linecap="round" stroke-linejoin="round"/>
<path d="M5.42871 6.94433C6.67162 6.94433 7.67919 5.93675 7.67919 4.69384C7.67919 3.45094 6.67162 2.44336 5.42871 2.44336C4.1858 2.44336 3.17822 3.45094 3.17822 4.69384C3.17822 5.93675 4.1858 6.94433 5.42871 6.94433Z" stroke="white" stroke-width="1.80039" stroke-linecap="round" stroke-linejoin="round"/>
</svg>
