<svg width="19" height="20" viewBox="0 0 19 20" fill="none" xmlns="http://www.w3.org/2000/svg">
<g clip-path="url(#clip0_2074_15)">
<path d="M16.141 8.60579C16.141 14.2039 9.39325 19.0023 9.39325 19.0023C9.39325 19.0023 2.64551 14.2039 2.64551 8.60579C2.64551 6.69687 3.35643 4.86614 4.62188 3.51633C5.88732 2.16652 7.60364 1.4082 9.39325 1.4082C11.1829 1.4082 12.8992 2.16652 14.1646 3.51633C15.4301 4.86614 16.141 6.69687 16.141 8.60579Z" stroke="white" stroke-width="1.77718" stroke-linecap="round" stroke-linejoin="round"/>
<path d="M9.39475 11.0054C10.637 11.0054 11.644 9.93127 11.644 8.60623C11.644 7.28119 10.637 6.20703 9.39475 6.20703C8.15253 6.20703 7.14551 7.28119 7.14551 8.60623C7.14551 9.93127 8.15253 11.0054 9.39475 11.0054Z" stroke="white" stroke-width="1.77718" stroke-linecap="round" stroke-linejoin="round"/>
</g>
<defs>
<clipPath id="clip0_2074_15">
<rect width="17.994" height="19.1936" fill="white" transform="translate(0.396484 0.611328)"/>
</clipPath>
</defs>
</svg>
