<svg width="143" height="126" viewBox="0 0 143 126" fill="none" xmlns="http://www.w3.org/2000/svg">
<g clip-path="url(#clip0_258_1168)">
<path d="M104.085 81.7057L114.368 77.9395L106.144 86.0827L112.9 91.9712L104.955 89.5384C104.955 89.5384 104.004 97.5187 119.722 95.6458C119.722 95.6458 121.559 91.732 112.45 84.9579C112.45 84.9579 123.173 78.8505 122.146 70.5547C122.161 70.5547 105.259 67.9692 104.085 81.7057Z" fill="#A2C53A"/>
<path d="M20.3382 102.869L13.0308 111.063L16.4821 99.998L7.7527 97.9623L15.8951 96.3591C15.8951 96.3591 13.0005 88.8674 0 97.9419C0 97.9419 0.21254 102.268 11.4317 103.947C11.4317 103.947 4.85303 114.437 9.62509 121.252C9.62509 121.267 25.7378 115.546 20.3382 102.869Z" fill="#A2C53A"/>
<path d="M82.2397 89.1436C82.8492 88.9565 83.0377 87.798 82.6609 86.556C82.284 85.3139 81.4844 84.4586 80.8749 84.6457C80.2654 84.8327 80.0769 85.9913 80.4537 87.2333C80.8306 88.4754 81.6302 89.3306 82.2397 89.1436Z" fill="white"/>
<path d="M82.1017 92.4397C80.1484 92.4397 78.3721 90.8212 77.5827 88.3172C76.601 85.2177 77.5827 82.3625 79.9004 81.5278C80.2788 81.392 80.6777 81.3232 81.0795 81.3242C83.0329 81.3242 84.8091 82.9376 85.5986 85.4417C86.5803 88.5462 85.5986 91.4014 83.2808 92.2361C82.9018 92.3695 82.5033 92.4383 82.1017 92.4397Z" fill="#231F20"/>
<path d="M17.7421 51.8154C17.0893 51.8106 16.4519 51.6158 15.9068 51.2546C15.3617 50.8933 14.9323 50.381 14.6704 49.7796C13.5672 47.3621 12.0339 42.7562 14.1998 39.0663C15.7533 36.4198 18.6581 35.0762 22.8279 35.0762C24.0696 35.0849 25.3092 35.1819 26.5373 35.3663L30.0797 31.7171C30.3872 31.396 30.7557 31.1405 31.1635 30.9656C31.5712 30.7907 32.0098 30.7001 32.453 30.6992C32.7544 30.6987 33.0544 30.7415 33.3437 30.8265L36.4458 31.7222C36.9943 31.8881 37.4939 32.1869 37.9007 32.5925C38.3075 32.998 38.609 33.4979 38.7787 34.0481C38.9592 34.6108 39.0074 35.208 38.9196 35.7926C38.8318 36.3772 38.6103 36.9334 38.2726 37.4173L32.8528 45.1482C32.5462 45.5949 32.1376 45.961 31.6613 46.2161C31.1849 46.4711 30.6547 46.6076 30.1151 46.614C29.6393 46.6125 29.1695 46.5066 28.7386 46.3036C27.5643 45.7489 26.2904 45.439 24.9938 45.3925C23.5111 45.3925 21.8766 45.8353 21.0365 49.118C20.8627 49.8715 20.4447 50.5454 19.8483 51.0337C19.2519 51.5221 18.511 51.797 17.7421 51.8154Z" fill="#231F20"/>
<path d="M25.6618 67.6433C22.2473 67.6744 18.8929 66.7397 15.9811 64.9459C11.128 61.8413 8.3144 56.1615 8.16765 53.9832C8.11942 53.4388 8.19763 52.8907 8.3961 52.3819C8.59458 51.8732 8.90789 51.4178 9.31132 51.0516C9.8612 50.5738 10.5633 50.3102 11.29 50.3086C12.6057 50.3086 13.3901 51.0822 14.1441 51.8354C14.4326 52.1204 14.7868 52.4716 15.2119 52.8533C17.5701 54.9705 20.5052 57.6069 22.8836 57.6069H23.1265C23.9455 57.4731 24.7319 57.1847 25.4442 56.7569C26.8359 56.0648 28.5666 55.1996 31.0108 55.1996C31.6145 55.2011 32.217 55.2522 32.8124 55.3522C33.0249 55.3879 33.1969 55.4235 33.3184 55.4489L34.5582 55.7136L36.7747 59.1948V60.2127C36.7813 60.884 36.6752 61.5516 36.461 62.1874C35.0643 66.2081 29.776 67.6433 25.6618 67.6433Z" fill="#231F20"/>
<path d="M24.6598 64.871C21.9575 64.871 16.7806 64.3315 12.4792 60.6874C11.4403 59.8147 10.5199 58.8086 9.74144 57.6948C5.0301 50.8495 5.69302 40.2329 11.1786 34.0237C15.3384 29.3312 20.7936 28.6797 22.5698 28.466C23.4214 28.366 24.2781 28.3167 25.1355 28.3184C28.6779 28.3184 34.7505 28.9699 35.545 33.3163C35.5817 33.4993 35.6053 33.6847 35.6158 33.871L35.7069 35.3979L29.9987 41.266C29.7142 41.5636 29.3732 41.8007 28.996 41.9633C28.6187 42.1259 28.2128 42.2107 27.8024 42.2126H27.5291L27.2204 42.1516C26.0721 41.9367 24.9069 41.826 23.7388 41.8208C21.158 41.8208 20.0295 42.4468 19.7663 42.8387C19.5032 43.2306 19.5791 43.9736 19.8574 44.9712C20.9606 48.946 22.5901 50.9614 24.7054 50.9614C25.8322 50.9095 26.9252 50.5583 27.8733 49.9436C28.3424 49.6594 28.8792 49.5082 29.4268 49.5059C29.994 49.5139 30.5484 49.6761 31.0313 49.9754C31.5142 50.2747 31.9075 50.6998 32.1696 51.2058L35.8334 58.0205L35.4741 59.354C35.4741 59.3998 35.4286 59.5219 35.3729 59.6746C34.0774 63.5324 29.0017 64.9066 24.6801 64.9066L24.6598 64.871Z" fill="#231F20"/>
<path d="M35.2768 49.3626C34.7564 49.3564 34.2452 49.2235 33.7869 48.9753C33.3287 48.7272 32.937 48.3711 32.6453 47.9376C32.3415 47.4882 32.1412 46.9764 32.0589 46.4393C31.9766 45.9022 32.0144 45.3535 32.1696 44.833L32.8022 42.7005C32.9789 42.065 33.3391 41.4965 33.8373 41.067C34.3355 40.6376 34.9492 40.3665 35.6007 40.2881C36.2261 40.2237 36.8544 40.1914 37.4832 40.1914C40.5448 40.1914 42.5437 41.021 43.6874 41.7182C44.2826 42.0978 44.7518 42.6472 45.0349 43.2964C45.3179 43.9455 45.402 44.6648 45.2764 45.3623C45.1705 46.0534 44.8543 46.6946 44.3713 47.1977C43.8883 47.7008 43.2622 48.041 42.5791 48.1717L35.5501 49.3575L35.2768 49.3626Z" fill="#231F20"/>
<path d="M39.1684 64.6218C37.2863 64.639 35.4429 64.0837 33.8801 63.0288L33.8245 62.9881C32.632 62.0894 31.6707 60.9167 31.021 59.568C30.7511 59.0207 30.6192 58.4151 30.6368 57.8045C30.6545 57.1939 30.8211 56.597 31.1222 56.0664C31.4079 55.5479 31.8246 55.1145 32.3301 54.8098C32.8357 54.505 33.4123 54.3398 34.0016 54.3309C34.4728 54.3351 34.9376 54.442 35.3639 54.644C35.7902 54.8461 36.1679 55.1386 36.4711 55.5015C36.6851 55.8097 36.9686 56.0626 37.2985 56.2396C37.6283 56.4165 37.9951 56.5124 38.3688 56.5194C39.3556 56.5194 40.6258 55.9137 42.0377 54.7635C42.6103 54.2955 43.3241 54.037 44.0619 54.0306C44.4675 54.0309 44.8693 54.1086 45.2461 54.2597C45.322 49.0328 45.2916 44.9408 45.1499 43.7041L43.3838 39.7241L47.331 38.9556C47.5445 38.9144 47.7614 38.894 47.9787 38.8945C48.6614 38.9117 49.3314 39.0829 49.9393 39.3957C50.5472 39.7084 51.0775 40.1546 51.4907 40.7013C53.0089 42.559 54.8813 46.6407 53.2214 60.5502C53.148 61.33 52.8136 62.0616 52.2732 62.6256C51.7327 63.1895 51.018 63.5523 50.2458 63.6548L44.6793 64.291H44.487C43.9575 64.2907 43.4362 64.1596 42.9688 63.9093L42.6652 64.0213C41.5424 64.4214 40.3596 64.6245 39.1684 64.6218Z" fill="#231F20"/>
<path d="M38.5965 63.1659C37.5895 63.1699 36.5895 62.9977 35.6411 62.657C34.4783 62.2592 33.4116 61.62 32.5102 60.7809C31.6088 59.9418 30.8927 58.9216 30.4086 57.7863C28.8044 53.9285 30.4744 50.4422 31.0209 49.465C31.7294 48.1933 32.7328 47.1125 33.9459 46.3146C33.7198 46.1142 33.5207 45.885 33.3538 45.6327C33.0422 45.1625 32.8406 44.6274 32.7644 44.0677C32.6881 43.5079 32.7391 42.9379 32.9135 42.4008C33.9256 39.3472 36.218 37.459 38.9861 37.459C41.3747 37.459 44.0821 37.515 44.659 37.5302H44.8918C48.4898 37.5302 51.096 39.8663 51.3743 43.3424C51.6071 46.2129 51.4451 55.8625 51.3743 58.7482C51.3833 59.5809 51.0944 60.3891 50.5602 61.0254C50.0261 61.6616 49.2822 62.0836 48.4645 62.2142C47.9951 62.2807 47.5216 62.3146 47.0476 62.3159C45.9564 62.3453 44.8745 62.1078 43.8948 61.6238C42.3007 62.6121 40.4691 63.1452 38.5965 63.1659Z" fill="#231F20"/>
<path d="M36.4155 58.9464C35.9936 58.9455 35.5765 58.8574 35.19 58.6876C34.8035 58.5177 34.4558 58.2697 34.1686 57.9591C33.5748 57.3578 33.1079 56.6422 32.7957 55.8551C32.4835 55.0681 32.3326 54.2257 32.3519 53.3785C32.39 52.5932 32.5923 51.8247 32.9454 51.1232C33.2985 50.4217 33.7946 49.8028 34.4014 49.307C35.3756 48.4285 36.6353 47.938 37.9437 47.9277C40.1805 47.9277 41.8251 49.3833 42.6095 50.2536C43.0432 50.748 43.3319 51.3538 43.4436 52.0034C43.5553 52.6531 43.4855 53.3212 43.2421 53.9333C43.0144 54.5334 42.6131 55.0511 42.0898 55.4194C41.5666 55.7878 40.9456 55.9899 40.307 55.9996H40.0944L39.8667 55.964C39.7655 55.964 39.6744 55.964 39.5985 55.964C39.5222 56.7602 39.159 57.5009 38.5774 58.0465C37.9958 58.5921 37.2358 58.9049 36.4408 58.9261L36.4155 58.9464Z" fill="#231F20"/>
<path d="M56.1059 63.6181C52.9937 63.6181 50.9492 62.6002 50.0333 60.6459C49.4817 59.4651 49.1882 57.5922 50.7266 55.0831C50.5882 54.8321 50.4309 54.5922 50.256 54.3655C48.6669 52.233 48.1457 50.2481 48.7074 48.4668C48.9098 47.8015 49.2725 47.1968 49.7634 46.7067C50.2543 46.2165 50.8581 45.8561 51.5211 45.6574L53.2923 45.1484L54.5422 46.5684C55.4286 47.6011 56.2516 48.6872 57.0067 49.8206C58.1504 51.5663 59.4914 54.0194 59.0309 56.3707C59.3808 56.6486 59.7552 56.8939 60.1493 57.1036L59.3396 63.3077C58.272 63.5003 57.1904 63.6042 56.1059 63.6181Z" fill="#231F20"/>
<path d="M53.4745 48.0594L48.7834 47.4894L48.505 44.8989C48.4241 44.1456 48.3633 42.2422 49.5475 40.8273C49.8839 40.4132 50.3078 40.0796 50.7883 39.8508C51.2689 39.6219 51.794 39.5034 52.3257 39.504C52.4747 39.5042 52.6234 39.5144 52.771 39.5345C53.7376 37.4988 55.7719 34.3179 59.8052 33.8954C60.1011 33.8648 60.3983 33.8495 60.6958 33.8496C64.6886 33.8496 69.4303 36.8524 69.5568 40.7255C69.5879 42.0457 69.5355 43.3665 69.3999 44.68L63.6562 45.9269C63.2992 45.2668 62.8771 44.6444 62.3961 44.0693C61.2033 44.7297 59.9136 45.1952 58.5755 45.4485L57.0573 48.0543L53.4745 48.0594Z" fill="#231F20"/>
<path d="M75.604 65.8329C75.2878 65.8315 74.9719 65.8128 74.6577 65.777C71.8542 65.4716 69.6276 63.6292 68.3776 60.5857C67.2086 57.7458 66.8595 53.5622 68.3321 51.4857L68.5446 51.1753C68.2299 50.6692 68.0348 50.0973 67.9742 49.5035C67.9137 48.9097 67.9894 48.3098 68.1954 47.75C68.9191 45.755 70.9737 44.8643 72.6942 44.8643C73.3524 44.8496 74.0048 44.9913 74.5983 45.2778C75.1919 45.5643 75.7098 45.9876 76.1101 46.5133C76.4962 47.0483 76.7627 47.661 76.8911 48.3094C77.0195 48.9577 77.0068 49.6264 76.854 50.2693C76.7376 50.8444 76.5554 51.5061 76.3479 52.2746C75.92 53.7197 75.5986 55.1945 75.3864 56.6872L75.5231 56.7839C75.6141 56.6413 75.7103 56.4836 75.8115 56.3156L81.3781 57.303C81.5198 57.9188 82.1523 61.0997 80.366 63.5528C79.8172 64.2946 79.0965 64.8901 78.2665 65.2875C77.4365 65.6849 76.5225 65.8722 75.604 65.8329Z" fill="#231F20"/>
<path d="M65.4476 63.933C64.654 63.9482 63.866 63.7957 63.1346 63.4854C62.4033 63.175 61.7448 62.7137 61.2018 62.1314C59.8861 60.7165 59.2282 58.6349 59.2434 55.9426C59.2434 52.9195 59.4813 50.7615 59.8962 49.3263C60.7717 46.354 62.8111 46.125 63.4386 46.125H63.7979L64.1572 46.2115L66.5913 46.8223L66.5356 49.479C66.4846 51.459 66.5709 53.4402 66.7937 55.4082H66.8291L67.2087 56.3345C67.3048 56.4922 67.5629 56.8434 67.7805 56.8434L68.909 63.1035C67.8275 63.6259 66.6471 63.9088 65.4476 63.933Z" fill="#231F20"/>
<path d="M75.7357 65.3177C74.8078 65.3027 73.8953 65.0771 73.0663 64.6576C72.2373 64.2381 71.5133 63.6356 70.9484 62.8951C70.6879 62.6432 70.4476 62.3709 70.2298 62.0808C69.6879 62.6677 69.0222 63.125 68.2815 63.4193C67.7078 63.6462 67.0965 63.7619 66.48 63.7603C65.5947 63.7234 64.7268 63.5016 63.9314 63.1091C63.136 62.7165 62.4305 62.1619 61.8597 61.4803C61.3976 62.0842 60.8083 62.5778 60.1341 62.9257C59.4095 63.2931 58.6076 63.4799 57.7961 63.4702C57.3862 63.4663 56.977 63.434 56.5715 63.3735C54.2234 63.0682 52.599 62.1012 51.7438 60.5082C51.3925 59.805 51.2058 59.0304 51.1979 58.2435C51.1901 57.4567 51.3612 56.6785 51.6982 55.9684C51.8049 55.7331 51.8814 55.4851 51.9259 55.2304C51.9512 55.037 51.8753 54.8588 51.2782 53.8817C50.1565 52.1761 49.3538 50.2788 48.9099 48.2832C48.5354 46.5681 47.837 43.377 50.0282 41.2649C50.9317 40.4064 52.1358 39.9418 53.3783 39.9722C53.5283 39.9644 53.6787 39.9644 53.8287 39.9722C55.1647 37.9974 57.5026 35.5545 60.9134 35.5545C62.7504 35.5545 64.5367 36.2874 66.2624 37.7379C67.5659 36.5136 69.1994 35.7028 70.9585 35.4069C71.4169 35.3317 71.8807 35.2943 72.3451 35.2949C76.6364 35.2949 79.9359 38.3944 81.3123 41.4634C82.3244 43.6926 82.1878 45.6113 82.0765 47.4638V47.4995C81.8639 51.0926 81.6615 54.9454 81.4591 59.2765C81.3933 60.9459 80.5735 63.3481 78.4633 64.595C77.633 65.0727 76.6922 65.3219 75.7357 65.3177Z" fill="#231F20"/>
<path d="M60.625 49.0771C60.1472 49.0772 59.6725 49.0016 59.2181 48.8532C59.2601 48.8594 59.3027 48.8594 59.3446 48.8532C59.5279 48.854 59.7074 48.801 59.8611 48.7006C60.0148 48.6003 60.1361 48.4569 60.21 48.2883L54.2335 47.0414C54.36 43.0461 56.7638 39 61.0652 39H61.4701C64.8454 39.1934 66.2978 41.4633 66.2421 43.6314C66.1713 46.4917 63.4943 49.0771 60.625 49.0771Z" fill="#231F20"/>
<path d="M73.5444 57.9486C73.5444 57.9486 73.8632 55.8619 74.0505 53.3324C73.7445 51.2098 73.1907 49.1308 72.4007 47.1385C71.5911 44.894 70.9585 43.128 72.0819 41.3823C72.3821 40.9142 72.7941 40.5292 73.2803 40.2625C73.7665 39.9958 74.3114 39.8559 74.8652 39.8555C75.5025 39.866 76.1291 40.0227 76.6971 40.3135C79.6272 41.708 80.7455 45.7084 80.2395 53.2815C80.4204 55.4286 80.1621 57.5903 79.4804 59.6332L73.5444 57.9486Z" fill="#231F20"/>
<path d="M23.0557 63.298C21.4347 63.315 19.8334 62.9401 18.3865 62.205C16.9396 61.4699 15.6895 60.396 14.7412 59.0737C13.38 57.2619 12.3071 55.8266 13.2231 53.8265C13.4615 53.271 13.8554 52.7973 14.3568 52.463C14.8581 52.1286 15.4453 51.9481 16.0469 51.9434C17.0185 51.9434 17.6713 52.3556 18.6631 52.9613C20.075 53.857 23.0101 55.7096 25.7479 55.7096C26.326 55.7152 26.9009 55.6222 27.4482 55.4348L29.9127 61.425C27.8135 62.6035 25.4592 63.2465 23.0557 63.298Z" fill="#231F20"/>
<path d="M87.2432 77.7218C80.9328 77.7218 78.7112 71.8129 78.3671 68.403C77.861 66.24 75.0929 53.8166 78.2102 40.2888L78.3013 39.8816L78.4885 39.5101C79.2881 37.9323 81.0694 36.1001 83.4984 36.0136C84.9862 32.7054 87.729 29.209 91.9242 29.209C93.322 29.2313 94.6944 29.589 95.9271 30.2523C99.7123 32.2067 100.633 34.7565 100.74 36.5531C100.977 40.6247 97.3592 43.3221 96.6305 43.826L96.0688 44.2127L86.1451 45.8007L85.305 58.2953L87.2989 67.8533L87.5266 68.2452L92.3139 65.8532L93.7713 68.2961C94.6012 69.6906 95.2085 72.0776 94.1812 74.2152C93.1539 76.3527 91.069 77.4826 87.9011 77.6963C87.6835 77.7218 87.4608 77.7218 87.2432 77.7218Z" fill="#231F20"/>
<path d="M86.5297 76.8616C83.129 76.8616 80.7051 73.8842 79.3134 68.0058C78.7956 65.7313 78.4471 63.4211 78.271 61.0944C77.2184 48.1569 78.5139 42.5178 78.9592 41.0367C79.3235 39.3012 80.7051 37.4741 83.5592 37.4741C83.7161 37.4741 83.8679 37.4741 84.0248 37.4741C85.2077 34.7471 87.2754 32.5043 89.8899 31.1123L90.2796 30.8985L90.7249 30.8375C91.4253 30.7338 92.1322 30.6811 92.8402 30.6797C96.8886 30.6797 99.2518 32.5424 100.542 34.1049C104.034 38.3292 103.381 44.7012 103.295 45.4137V45.5511L103.265 45.6885C102.071 51.5923 100.426 55.8268 98.2043 58.6463C95.8411 61.7 93.2703 62.4583 91.4232 62.5398C91.9008 63.9645 92.4652 65.3583 93.1134 66.7131C93.4631 67.4414 93.7756 68.1871 94.0496 68.9474C94.4279 70.1221 94.3408 71.3983 93.8067 72.51C92.739 74.729 90.1277 75.8538 88.8525 76.2864C88.1278 76.6425 87.3359 76.8386 86.5297 76.8616Z" fill="#231F20"/>
<path d="M88.2149 55.7656C85.4366 55.7656 83.2606 54.4933 82.3953 52.3659C81.3224 49.7244 82.5268 46.2585 84.966 44.9505C85.1913 44.8337 85.4247 44.7333 85.6644 44.6503C85.3603 43.4083 85.3603 42.1107 85.6644 40.8688C86.8536 36.2526 92.1317 34.339 94.6923 34.339C95.3401 34.2999 95.9872 34.4259 96.5737 34.7052C97.1602 34.9846 97.6671 35.4083 98.0474 35.9371C99.3429 37.7947 98.4675 39.8203 98.0474 40.7924C98.007 40.8739 97.9614 40.9808 97.9209 41.0876C98.8551 42.6745 99.3187 44.4969 99.2569 46.34C99.0444 50.4675 95.8208 54.1116 91.3979 55.2465C90.3676 55.5802 89.2922 55.7519 88.2098 55.7555L88.2149 55.7656Z" fill="#231F20"/>
<path d="M110.466 64.7627C108.331 64.7774 106.239 64.1615 104.449 62.9916C102.973 61.9893 101.739 60.6655 100.841 59.1185C98.2752 54.8281 98.5991 50.2475 98.8167 46.9038L98.8623 46.2574C99.1698 41.2762 99.0378 36.2775 98.4675 31.3198L98.3005 29.793L100.487 27.3398L105.78 29.172L108.067 47.7842C111.169 49.7386 116.67 53.8305 116.974 58.4161C117.038 59.4774 116.834 60.5378 116.378 61.4975C115.923 62.4573 115.233 63.2849 114.373 63.9026L113.867 64.3047L113.234 64.4472C112.329 64.6561 111.404 64.762 110.476 64.7627H110.466Z" fill="#231F20"/>
<path d="M116.027 64.0207C114.875 64.3522 113.683 64.5234 112.485 64.5296C109.81 64.549 107.207 63.6515 105.107 61.9849C100.826 58.58 100.244 53.2564 100.168 51.7092V51.6176L99.5707 26.3179H114.57L114.363 29.8092C114.125 33.8808 113.993 38.0033 113.983 41.9985C113.937 43.4127 113.999 44.8284 114.17 46.233C114.639 46.1467 115.094 45.996 115.521 45.7851C117.181 45.0318 118.052 43.2404 118.401 42.1665L114.712 13.9199L126.351 16.8311L127.12 61.3843L116.017 65.6289L116.027 64.0207Z" fill="#231F20"/>
<path d="M121.214 65.3742C120.435 65.4087 119.657 65.28 118.929 64.9961C118.202 64.7122 117.541 64.2795 116.989 63.7253C114.003 60.6156 115.041 55.6483 116.134 50.3857C116.873 46.8231 117.773 42.5225 116.883 40.1508H114.894C113.995 40.1189 113.145 39.7307 112.53 39.0709C111.914 38.411 111.584 37.5332 111.61 36.6289V30.2366C111.913 24.8926 113.128 16.9632 117.176 9.44099C118.837 6.3126 120.946 3.44704 123.436 0.936476C124.028 0.340762 124.83 0.00420351 125.668 0C126.568 0.0292416 127.42 0.416506 128.037 1.07679C128.653 1.73708 128.984 2.61646 128.957 3.52194V61.379C128.963 62.2493 128.657 63.0927 128.097 63.7558C127.799 64.1119 127.428 64.3991 127.01 64.5977C126.591 64.7962 126.135 64.9014 125.673 64.906H125.48C124.932 64.9331 124.386 64.9977 123.846 65.0994C122.977 65.2614 122.097 65.3533 121.214 65.3742Z" fill="#231F20"/>
<path opacity="0.63" d="M121.741 63.5828C120.86 63.5924 119.995 63.345 119.251 62.8703C116.397 61.0482 116.69 57.226 116.903 54.437C117.207 50.4774 117.652 47.4543 118.011 45.0266C118.563 41.3062 118.78 39.6216 118.168 38.6291C117.991 38.3441 117.955 38.3238 117.495 38.0693C116.559 37.5841 115.734 36.9061 115.076 36.0793C111.119 31.0712 113.204 22.0985 121.842 6.99805L127.555 8.69794L127.727 60.9261L126.29 61.8982C124.605 63.0331 123.122 63.5828 121.741 63.5828Z" fill="#231F20"/>
<path d="M114.185 62.3257C112.642 62.3257 108.766 62.0101 106.038 59.0786C104.783 57.735 103.295 55.292 103.326 51.2866C103.326 50.228 103.326 49.4951 103.361 48.976C103.523 45.2963 106.245 45.1895 106.554 45.1895C108.74 45.1895 109.469 47.1693 109.859 48.2431C110.547 50.1059 112.151 54.4777 115.795 55.9639L114.95 62.3053C114.874 62.3003 114.6 62.3257 114.185 62.3257Z" fill="#231F20"/>
<path d="M107.045 40.3795C104.297 40.3795 102.06 37.9977 102.06 35.0712C102.06 32.1448 104.297 29.7578 107.045 29.7578C109.793 29.7578 112.04 32.1397 112.04 35.0712C112.04 38.0028 109.793 40.3795 107.045 40.3795Z" fill="#231F20"/>
<path d="M88.5337 74.7328C87.4299 74.7022 86.3833 74.232 85.6242 73.4255C84.865 72.619 84.4554 71.5424 84.4853 70.4323C84.4567 69.323 84.867 68.2476 85.626 67.4423C86.385 66.6369 87.4308 66.1674 88.5337 66.1367C89.6366 66.1674 90.6824 66.6369 91.4414 67.4423C92.2004 68.2476 92.6107 69.323 92.5821 70.4323C92.6121 71.5424 92.2024 72.619 91.4432 73.4255C90.6841 74.232 89.6375 74.7022 88.5337 74.7328Z" fill="#231F20"/>
<path d="M131.806 50.9771C129.276 50.9771 126.746 48.1066 126.143 45.5415C125.844 44.3552 125.953 43.1019 126.452 41.9856C126.951 40.8693 127.81 39.9557 128.891 39.3934C132.327 37.4747 134.458 36.3041 134.858 36.0904C135.322 35.8315 135.845 35.6949 136.376 35.6934H137.808C138.72 35.7226 139.584 36.1137 140.211 36.7811C140.837 37.4486 141.176 38.3383 141.153 39.256V45.0987C141.177 46.016 140.84 46.9056 140.214 47.5733C139.588 48.2409 138.725 48.6321 137.813 48.6613C137.671 48.6613 137.529 48.6511 137.388 48.6308C136.717 48.5386 136.041 48.4892 135.364 48.4832H135.06C134.934 48.8887 134.743 49.2705 134.493 49.6131C134.183 50.0358 133.778 50.3793 133.311 50.6162C132.844 50.8531 132.329 50.9767 131.806 50.9771Z" fill="#231F20"/>
<path d="M130.258 65.6496C128.661 65.6392 127.068 65.4911 125.496 65.2068C124.686 65.0473 123.958 64.6047 123.441 63.9573C122.924 63.3099 122.652 62.4996 122.672 61.6696V60.5805C122.655 59.7005 122.966 58.8461 123.545 58.1863C124.125 57.5265 124.929 57.1095 125.799 57.0179C128.709 56.8092 130.905 56.1018 131.644 55.5826C131.601 53.0773 131.977 50.5826 132.758 48.2029C132.974 47.5297 133.395 46.9414 133.96 46.5199C134.525 46.0984 135.207 45.8648 135.91 45.8516C136.276 45.8529 136.639 45.9166 136.983 46.0399C138.253 46.4979 141.33 47.9383 142.55 51.4602C143.496 54.2238 142.99 57.3589 141.031 60.7739C140.45 61.7969 137.778 65.6496 130.258 65.6496Z" fill="#231F20"/>
<path d="M129.028 63.878C127.857 63.8755 126.688 63.7819 125.531 63.5981C124.703 63.4411 123.959 62.9927 123.43 62.3333C122.901 61.6739 122.624 60.8466 122.647 59.9999V55.2616C122.639 54.6028 122.808 53.9542 123.136 53.3838C123.463 52.8133 123.938 52.3421 124.509 52.0196C124.33 51.8393 124.161 51.649 124.003 51.4496C121.655 48.2737 122.161 43.622 123.679 40.6548C124.627 38.8682 126.048 37.3808 127.786 36.3575C129.523 35.3342 131.509 34.8151 133.522 34.8579C134.631 34.8589 135.735 35.0078 136.806 35.3007C137.519 35.5066 138.149 35.9321 138.608 36.5174C139.068 37.1027 139.333 37.8182 139.367 38.563L139.68 43.0774C139.753 44.0757 139.429 45.0621 138.78 45.8206C138.501 46.1403 138.166 46.4059 137.793 46.6044C138.483 47.2176 139.064 47.9459 139.508 48.7573C140.697 50.9355 140.91 53.5922 140.151 56.6561C139.498 59.3535 137.16 63.878 129.028 63.878Z" fill="#231F20"/>
<path d="M128.557 62.5133C127.596 62.5133 126.928 62.4522 126.857 62.442L126.948 55.8919C129.347 55.7443 131.047 55.1183 131.74 54.1411C132.113 53.5444 132.247 52.8278 132.115 52.1358V52.202L137.793 49.7285C139.346 52.6702 139.675 55.3269 138.759 57.5612C138.157 59.0881 136.7 61.0424 133.193 61.9687C131.672 62.3424 130.112 62.5253 128.547 62.5133H128.557Z" fill="#231F20"/>
<path d="M124.529 49.1794C124.342 48.6399 122.773 43.8406 125.126 40.1558C126.103 38.629 128.107 36.7713 132.079 36.6797L132.849 43.1637H132.909C132.282 43.352 130.268 44.2427 130.495 47.8256L124.529 49.1794Z" fill="#231F20"/>
<path d="M90.8615 89.7279C88.3009 89.7279 85.1836 86.6742 84.4397 83.4577C84.1097 82.1337 84.2352 80.7364 84.7957 79.4934C85.3563 78.2503 86.3189 77.2348 87.5266 76.6123C91.7673 74.2457 94.4595 72.7698 95.1832 72.3728C95.6607 72.1088 96.1969 71.9705 96.7418 71.9707H98.5788C99.5121 72.0026 100.395 72.4039 101.036 73.0873C101.677 73.7707 102.023 74.6809 102 75.6199V83.1116C102.022 84.0479 101.676 84.9553 101.038 85.6373C100.399 86.3194 99.5196 86.7211 98.5889 86.7556C98.4439 86.7634 98.2987 86.7634 98.1537 86.7556C97.2496 86.6311 96.3386 86.5648 95.4261 86.5571C95.0628 86.5547 94.6996 86.5717 94.3381 86.608C94.2453 87.2437 93.9985 87.8467 93.6195 88.3639C93.2963 88.7907 92.879 89.136 92.4003 89.3727C91.9217 89.6095 91.3949 89.731 90.8615 89.7279Z" fill="#231F20"/>
<path d="M89.4497 108.563C87.5206 108.55 85.5966 108.362 83.7009 108.003C82.879 107.834 82.1426 107.379 81.6208 106.718C81.0989 106.057 80.8249 105.233 80.8468 104.39V102.985C80.8202 102.086 81.1325 101.211 81.721 100.534C82.3095 99.8572 83.1306 99.4292 84.0197 99.3358C88.3161 99.005 91.3069 97.809 91.8382 97.0303C91.7252 93.7883 92.1633 90.5507 93.1337 87.457C93.344 86.7588 93.7687 86.1454 94.3468 85.7048C94.925 85.2641 95.6269 85.0188 96.3522 85.0039C96.7411 85.0041 97.1268 85.0748 97.4908 85.2125C98.9331 85.752 102.425 87.4417 103.791 91.4624C104.92 94.7197 104.348 98.4757 102.101 102.629C101.539 103.733 98.5383 108.563 89.4497 108.563Z" fill="#231F20"/>
<path d="M88.1794 106.263C86.7218 106.263 85.2665 106.145 83.8274 105.912C82.9765 105.752 82.2102 105.293 81.6666 104.615C81.1229 103.938 80.8376 103.087 80.8619 102.217V96.1098C80.8386 95.173 81.1745 94.2631 81.8001 93.5686C82.4256 92.8741 83.2929 92.4483 84.2221 92.3793C83.5477 91.8886 82.9492 91.3003 82.4459 90.6336C79.6221 86.8928 80.285 81.3606 82.0967 77.803C84.2828 73.5126 88.8322 70.8457 93.9636 70.8457C95.3156 70.8488 96.6614 71.0302 97.9665 71.3852C98.6982 71.6008 99.3451 72.0399 99.8175 72.6417C100.29 73.2436 100.564 73.9784 100.603 74.7443L101.008 80.5361C101.08 81.5643 100.746 82.5797 100.077 83.3607C99.7565 83.7327 99.3612 84.0319 98.917 84.2381C98.4729 84.4444 97.9901 84.553 97.5009 84.5568H97.2175C98.7698 85.4002 100.047 86.676 100.896 88.2313C102.303 90.7761 102.551 93.9773 101.635 97.6672C100.264 103.22 95.4817 106.263 88.1794 106.263Z" fill="#231F20"/>
<path d="M86.6916 104.538C85.4923 104.538 84.6674 104.462 84.5864 104.457L84.6775 97.9019C88.0782 97.6932 90.4313 96.7771 91.489 95.2655C92.1158 94.2803 92.3389 93.0891 92.1114 91.9421V91.993L97.7691 89.5195C99.6263 93.0262 100.031 96.1358 98.9735 98.7467C97.9614 101.291 95.755 102.986 92.4302 103.867C90.5491 104.329 88.618 104.555 86.6815 104.538H86.6916Z" fill="#231F20"/>
<path d="M82.3397 88.0271C82.117 87.3859 80.2345 81.6348 83.0077 77.2884C84.1513 75.4969 86.5045 73.344 91.231 73.2168L92.0002 79.7008H92.0457C91.3575 79.8993 87.9568 81.1615 88.306 86.653L82.3397 88.0271Z" fill="#231F20"/>
<path d="M12.8234 109.331C12.335 109.327 11.8527 109.221 11.4068 109.021C10.9609 108.82 10.5611 108.529 10.2324 108.166C9.55136 107.401 9.18894 106.403 9.22032 105.377L9.7871 80.9472L9.87818 78.7587C9.30323 78.3689 8.81546 77.8627 8.44606 77.2726C7.64143 75.9748 7.03924 73.7099 8.72945 70.3814C9.32153 69.2108 11.452 65.3887 14.0784 65.3887C14.5819 65.3887 15.0776 65.5146 15.5207 65.7551C16.0723 66.0554 17.7726 67.2361 17.0388 70.071C17.5369 70.2951 18.0004 70.5899 18.4153 70.9463C20.5204 72.7785 21.2137 76.0358 20.5306 80.8352C20.2934 82.4564 19.9554 84.0611 19.5185 85.6397L21.0113 95.4369C21.0917 95.9835 21.0625 96.5407 20.9253 97.0757C20.827 97.4058 20.7793 97.7491 20.7836 98.0936C21.1907 98.2815 21.612 98.4364 22.0437 98.5567C23.5163 99.0198 25.7429 99.7171 26.922 102.155C27.4575 103.295 27.6678 104.561 27.5293 105.814C27.4691 106.739 27.068 107.608 26.4044 108.251C25.7408 108.894 24.8624 109.265 23.9414 109.29L12.8234 109.331Z" fill="#231F20"/>
<path d="M21.239 107.892C18.7087 107.892 17.0438 107.892 16.2037 107.841C13.8354 107.74 12.5349 106.686 11.8618 105.806C11.1252 104.834 10.7655 103.625 10.8497 102.406C11.0623 93.7995 11.3558 81.1623 11.3963 77.503C10.9407 77.2707 10.5322 76.9548 10.1919 76.5717C9.46833 75.7219 9.0763 74.6367 9.08866 73.518C9.08866 73.3806 9.08866 70.4083 9.08866 68.683V68.5812C9.05303 67.2426 9.5281 65.941 10.4164 64.9435C11.3047 63.946 12.5389 63.3282 13.8658 63.2169C15.3435 63.1355 19.1844 62.9522 22.9747 62.9522C25.3051 62.9221 27.6352 63.0291 29.9532 63.2729C35.9549 64.021 37.888 69.5533 37.7413 73.1617V85.0812C37.7409 85.3435 37.7223 85.6054 37.6856 85.865C37.5534 86.8952 37.281 87.9022 36.8759 88.8577C37.4937 89.7577 37.8971 90.7886 38.055 91.8706C38.09 92.1236 38.1069 92.3787 38.1056 92.6341C38.1056 93.652 38.1057 99.0061 37.9387 101.454C37.7261 104.406 35.378 106.737 31.6535 107.694C31.2814 107.79 30.8991 107.841 30.5149 107.846C29.2902 107.857 24.9028 107.892 21.239 107.892Z" fill="#231F20"/>
<path d="M18.5265 88.3129V72.0826L20.9808 71.538C22.0539 71.2938 23.1498 71.1658 24.2499 71.1562C27.5949 71.1562 29.2092 72.5609 29.6242 72.9884L30.5908 74.0063L30.5553 75.4467C30.5553 75.4772 30.4794 78.5818 30.5553 81.4726C30.6667 85.7732 27.6557 87.9006 25.6011 88.2823L25.3379 88.3281L18.5265 88.3129Z" fill="#231F20"/>
<path d="M19.5993 100.811L18.7188 99.1267C18.4101 98.5363 17.4587 96.4546 18.0913 94.3578C18.2577 93.7862 18.5395 93.2552 18.9191 92.7981C19.2988 92.341 19.7681 91.9675 20.2977 91.7011L20.9201 91.3906H28.6728L29.4825 92.0166C30.0839 92.493 30.576 93.0943 30.9253 93.7794C31.2747 94.4645 31.473 95.2173 31.5067 95.9864C31.515 96.7654 31.3482 97.5362 31.0187 98.2412C30.6892 98.9463 30.2056 99.5673 29.604 100.058L28.7538 100.801L19.5993 100.811Z" fill="#231F20"/>
<path d="M34.8771 126.001C34.1095 125.99 33.3664 125.728 32.7594 125.255C32.1525 124.783 31.7147 124.124 31.5119 123.38C30.3626 119.406 29.7149 115.302 29.5838 111.165C29.432 105.2 33.2881 100.253 35.4692 97.9324L34.0523 77.1979C33.9807 76.1939 34.296 75.2007 34.9328 74.4242C35.2374 74.0534 35.6148 73.7499 36.0415 73.5327C36.4682 73.3155 36.935 73.1893 37.4124 73.162L43.6369 72.8516H43.728C44.2031 72.8502 44.6734 72.9481 45.1089 73.1391C45.5445 73.3301 45.9358 73.61 46.2582 73.961C46.9237 74.6903 47.286 75.6484 47.2703 76.6381L47.159 99.6527C49.0061 101.526 51.9715 105.607 52.1082 112.611C52.2347 119.039 50.59 122.28 49.1731 123.863C48.8526 124.229 48.4588 124.523 48.0176 124.726C47.5763 124.929 47.0975 125.035 46.6125 125.039C46.35 125.04 46.0884 125.009 45.8331 124.947C45.2249 125.465 44.4541 125.75 43.6571 125.751H42.4274C41.8455 125.75 41.2738 125.597 40.7676 125.309C40.2817 125.57 39.7394 125.706 39.1887 125.706H38.0804C37.6848 125.707 37.2922 125.636 36.9216 125.497C36.4035 125.805 35.813 125.969 35.2111 125.97L34.8771 126.001Z" fill="#231F20"/>
<path d="M37.5692 78.343C36.57 78.3157 35.6196 77.9023 34.9157 77.1886C34.2117 76.4749 33.8082 75.5158 33.789 74.5106L33.5056 68.2863C33.4328 67.2492 33.769 66.225 34.4415 65.4353C35.1139 64.6457 36.0685 64.1541 37.0986 64.0671L42.9384 63.7617H43.1206C44.1193 63.7891 45.0691 64.2027 45.7723 64.9165C46.4755 65.6304 46.8779 66.5894 46.8957 67.5941L47.1842 73.8185C47.257 74.8556 46.9208 75.8798 46.2484 76.6694C45.5759 77.4591 44.6213 77.9506 43.5912 78.0377L37.7514 78.343H37.5692Z" fill="#231F20"/>
<path opacity="0.63" d="M43.0093 123.929C42.536 123.928 42.0678 123.831 41.6329 123.643C41.1981 123.455 40.8055 123.18 40.4791 122.835C39.9187 123.202 39.265 123.398 38.5965 123.4C37.8634 123.388 37.151 123.153 36.5531 122.726C35.9552 122.299 35.4997 121.7 35.2465 121.008C34.9351 121.084 34.6156 121.122 34.2951 121.12H34.1787C33.5064 121.087 32.8605 120.847 32.329 120.431C31.7975 120.016 31.4061 119.446 31.2082 118.799C30.1164 115.454 29.9415 111.874 30.7021 108.437C31.1771 106.429 31.9626 104.509 33.03 102.747C33.9532 101.201 35.0858 99.7909 36.3952 98.5583C36.2738 95.7795 36.1422 93.077 35.9904 90.4966V90.2625C35.9044 88.8426 35.7171 85.5243 35.6463 83.2798L35.5046 78.9079C35.451 78.0451 35.7287 77.1945 36.2805 76.5315C36.8323 75.8686 37.616 75.444 38.47 75.3453L42.569 74.9941L45.0993 77.4218L45.7521 99.0215C47.8785 101.199 49.492 103.829 50.4736 106.717C52.5433 112.946 50.4736 119.11 50.256 119.792C50.031 120.482 49.5967 121.085 49.0141 121.515C48.4315 121.945 47.7297 122.18 47.0071 122.189C46.7307 122.189 46.4554 122.155 46.1873 122.087C45.8771 122.636 45.4293 123.093 44.8886 123.414C44.3479 123.734 43.7331 123.907 43.1055 123.914L43.0093 123.929Z" fill="#231F20"/>
<path d="M40.6865 77.4405C39.4183 77.4148 38.1671 77.1417 37.0024 76.6364L38.5763 70.3458C38.6985 70.3653 38.822 70.3754 38.9457 70.3763C39.0519 70.3763 39.31 70.3763 39.391 70.2796C39.692 69.7344 39.8373 69.1162 39.811 68.4932V68.5238L45.8583 67.5059C46.7439 70.8802 46.5466 73.4096 45.241 75.2368C44.7175 75.9492 44.0291 76.5224 43.2354 76.9064C42.4416 77.2905 41.5667 77.4738 40.6865 77.4405Z" fill="#231F20"/>
<path d="M38.4245 73.2734C37.4173 73.2415 36.4637 72.8096 35.7724 72.0723C35.081 71.335 34.7081 70.3523 34.7354 69.3392C34.7082 68.3267 35.0812 67.3445 35.7727 66.608C36.4642 65.8715 37.4178 65.4408 38.4245 65.4102C39.4313 65.4408 40.3849 65.8715 41.0764 66.608C41.7679 67.3445 42.1409 68.3267 42.1136 69.3392C42.1409 70.3523 41.7681 71.335 41.0767 72.0723C40.3853 72.8096 39.4317 73.2415 38.4245 73.2734Z" fill="#231F20"/>
<path d="M57.791 107.367C54.6889 107.367 50.2812 105.841 46.9261 98.6135L46.42 97.565L46.6579 96.4301C48.0192 90.0581 49.9725 80.6832 50.2306 78.9681C50.2278 78.5659 50.2582 78.1641 50.3217 77.767C50.3925 77.3395 50.4938 76.7949 50.6405 76.1027C50.7873 75.4106 50.9593 74.5759 51.0555 74.1891L51.2933 67.9647L52.6344 62.9465L56.6575 60.1523L61.4245 62.9058V68.8655H65.9789V83.2382H61.3587V90.7655H65.9891V103.718L64.8555 104.706C62.8598 106.357 60.3744 107.294 57.791 107.367Z" fill="#231F20"/>
<path d="M55.8022 104.564C48.672 104.564 47.0324 99.8256 46.663 97.7847L46.6022 97.4743V83.468H42.7107V68.1996H47.169L47.0627 66.6321L53.6971 62.25L58.4033 65.0441V68.561H63.0236V80.3634H58.6867V89.5703C58.7272 89.6772 58.7778 89.7841 58.8284 89.8858L63.0236 87.3411V103.22L60.7565 103.882C59.1414 104.324 57.4761 104.553 55.8022 104.564Z" fill="#231F20"/>
<path d="M71.6266 96.6387C69.8604 96.6578 68.1186 96.2234 66.5661 95.3764C59.6838 91.5492 60.1443 81.4517 61.5055 76.0925C62.0961 73.7064 63.1655 71.467 64.6481 69.5118C67.2239 66.1527 70.3513 64.575 72.4211 64.2238C72.9228 64.14 73.4306 64.0991 73.9392 64.1017C74.2638 64.101 74.5881 64.118 74.9108 64.1526C76.5302 64.3104 77.7245 64.7786 78.5696 65.5827C81.7324 68.5906 79.7538 73.96 79.3236 75.0033L78.4937 77.0391L72.4211 76.8915L72.0719 78.856L73.5141 85.5283L82.4966 87.0857L81.1707 93.4374L79.9663 94.1601C78.9997 94.7403 75.5333 96.6387 71.6266 96.6387Z" fill="#231F20"/>
<path d="M72.4969 95.784C69.8047 95.784 66.0599 94.5931 63.5246 88.903L63.4234 88.6791L63.3576 88.445C63.2159 87.936 59.9721 76.1031 68.0588 68.1838L68.1398 68.1024L68.2309 68.0312C69.9313 66.6507 72.0333 65.8662 74.2175 65.7969C75.9684 65.7969 78.5341 66.3872 80.7961 69.1966L80.8366 69.2475L80.8771 69.2984C82.7242 71.7668 84.7433 77.92 79.2527 83.605C79.1464 83.7271 78.9996 83.8899 78.8124 84.0731L80.3306 84.7297C80.3306 85.7476 80.6494 87.1218 80.9429 87.4577L83.3163 89.9668L80.786 92.2825C80.3812 92.6387 76.8186 95.784 72.4969 95.784Z" fill="#231F20"/>
<path d="M71.7429 82.3012C70.5877 82.2886 69.4798 81.8378 68.6408 81.039L67.1935 79.7361L67.6337 77.7715C68.2764 74.8807 69.911 70.0254 73.59 70.0254C73.8379 70.0262 74.0852 70.05 74.3288 70.0967C75.1781 70.2703 75.9563 70.6955 76.5633 71.3178C77.1702 71.94 77.5782 72.7307 77.7345 73.588C78.2709 75.9801 77.1678 79.3391 75.3814 80.7794C74.381 81.6961 73.0946 82.2341 71.7429 82.3012Z" fill="#231F20"/>
<path d="M32.5493 33.9879L35.6463 34.8837C35.6996 34.902 35.7479 34.9324 35.7875 34.9726C35.8271 35.0129 35.8568 35.0618 35.8745 35.1155C35.8921 35.1692 35.8972 35.2264 35.8892 35.2824C35.8812 35.3384 35.8604 35.3918 35.8285 35.4384L30.3834 43.1999C30.341 43.2634 30.2774 43.3097 30.2041 43.3302C30.1308 43.3508 30.0526 43.3442 29.9836 43.3118C28.4654 42.6095 20.3686 39.2657 18.061 48.269C18.0476 48.3377 18.0125 48.4002 17.961 48.4473C17.9095 48.4944 17.8442 48.5236 17.7749 48.5304C17.7056 48.5373 17.636 48.5215 17.5763 48.4854C17.5166 48.4493 17.4701 48.3948 17.4436 48.33C16.1178 45.4341 12.8892 36.1764 27.4078 38.8229C27.4597 38.8324 27.513 38.829 27.5633 38.8131C27.6136 38.7971 27.6592 38.769 27.6962 38.7313L32.2507 34.0744C32.2884 34.0348 32.3359 34.0059 32.3884 33.9907C32.4408 33.9755 32.4963 33.9745 32.5493 33.9879Z" fill="#F8FAF8"/>
<path d="M32.696 58.6608L33.6777 60.1877C33.6797 60.4729 33.6353 60.7566 33.5461 61.0274C32.4126 64.356 23.5516 65.9388 17.5701 62.1166C13.1017 59.2614 10.9914 53.8564 11.2748 53.5866C11.4064 53.4747 12.044 54.2737 13.2383 55.3476C16.1177 57.9381 19.6904 61.1445 23.3593 60.8595C26.5373 60.6101 28.1668 57.872 32.3164 58.5743C32.4834 58.615 32.615 58.6405 32.696 58.6608Z" fill="#F4F4F4"/>
<path d="M27.8581 38.8997C27.8469 38.9044 27.8349 38.9069 27.8227 38.9069C27.8105 38.9069 27.7985 38.9044 27.7873 38.8997C26.9877 38.7368 14.2352 36.3142 16.8819 45.857C19.5994 55.6491 25.4189 55.1249 29.3661 52.7481C29.375 52.7428 29.3849 52.7394 29.3952 52.738C29.4055 52.7367 29.4159 52.7375 29.4258 52.7403C29.4358 52.7432 29.4451 52.748 29.4531 52.7546C29.4611 52.7612 29.4677 52.7694 29.4724 52.7787L32.5087 58.3771C32.5087 58.3771 32.5087 58.4381 32.4733 58.4941C31.3448 61.8532 20.6975 63.3953 14.4123 58.0819C13.5914 57.3908 12.8633 56.5953 12.2464 55.7153C8.66865 50.5189 8.66864 41.6276 13.4356 36.243C16.8262 32.4259 21.2693 31.8915 22.9393 31.693C26.679 31.2451 32.1849 32.0085 32.5543 33.9171C32.5582 33.9628 32.5582 34.0088 32.5543 34.0545L27.8581 38.8997Z" fill="#D42027"/>
<path d="M35.7424 43.693L35.1048 45.8255C35.0955 45.8559 35.0938 45.8882 35.0999 45.9195C35.106 45.9507 35.1196 45.98 35.1396 46.0047C35.1597 46.0293 35.1855 46.0487 35.2147 46.0609C35.2439 46.0732 35.2757 46.078 35.3072 46.0749L42.0985 44.9246C42.1363 44.9164 42.1709 44.8968 42.1975 44.8684C42.2241 44.84 42.2416 44.8042 42.2476 44.7657C42.2536 44.7272 42.2479 44.6877 42.2312 44.6525C42.2145 44.6173 42.1877 44.588 42.1541 44.5684C41.3697 44.0594 39.386 43.1942 35.8993 43.5505C35.8617 43.5549 35.8264 43.571 35.7982 43.5965C35.7701 43.6221 35.7506 43.6558 35.7424 43.693Z" fill="#F4F4F4"/>
<path d="M47.8876 42.1706C47.8876 42.1706 52.4067 41.285 50.1598 60.1161C50.1547 60.1793 50.1284 60.239 50.0852 60.2852C50.042 60.3314 49.9844 60.3615 49.9219 60.3705L44.487 60.9915C44.4126 60.9957 44.3396 60.9702 44.2837 60.9207C44.2278 60.8712 44.1936 60.8015 44.1884 60.7268L44.0416 58.9302C43.868 59.2459 43.6555 59.5383 43.4091 59.8005C42.9243 60.304 42.3226 60.6783 41.6581 60.8897C40.6716 61.2774 39.6084 61.4274 38.5539 61.3275C37.4994 61.2277 36.4827 60.8807 35.5855 60.3145C34.7968 59.7174 34.1617 58.9391 33.7334 58.0447C33.7027 57.9857 33.6939 57.9177 33.7086 57.8528C33.7233 57.788 33.7604 57.7305 33.8134 57.6907C33.8664 57.6508 33.9318 57.6313 33.9978 57.6356C34.0638 57.6398 34.1261 57.6676 34.1736 57.7138C35.6918 59.485 38.8141 61.4851 43.8848 57.3627C43.9193 57.335 43.9602 57.3163 44.0036 57.3083C44.0471 57.3003 44.0918 57.3033 44.1339 57.3169C44.1759 57.3305 44.214 57.3543 44.2447 57.3863C44.2754 57.4182 44.2978 57.4573 44.3098 57.5001C44.5021 58.1159 45.2359 59.1389 47.9939 58.7826C48.061 58.7729 48.1224 58.7393 48.1669 58.6879C48.2115 58.6366 48.2363 58.5709 48.2368 58.5027C48.2823 56.5382 48.5708 43.4226 48.0496 42.5625L47.8876 42.1706Z" fill="#F4F4F4"/>
<path d="M36.132 43.846C36.0856 43.8479 36.0393 43.8384 35.9974 43.8181C35.9555 43.7978 35.9192 43.7675 35.8917 43.7298C35.8642 43.6921 35.8463 43.6481 35.8397 43.6018C35.8331 43.5555 35.8379 43.5083 35.8537 43.4643C36.127 42.6143 36.962 40.7363 38.9963 40.7363C41.6227 40.7363 44.7045 40.8127 44.7045 40.8127C44.7045 40.8127 48.0698 40.548 48.3127 43.6119C48.5404 46.4162 48.3532 56.9463 48.3127 58.6716C48.3147 58.7388 48.2921 58.8045 48.2492 58.856C48.2063 58.9076 48.146 58.9416 48.0799 58.9515C47.3259 59.0533 44.9424 59.2569 44.411 57.6995C44.3995 57.6545 44.3766 57.6132 44.3446 57.5797C44.3125 57.5462 44.2724 57.5216 44.2281 57.5082C44.1838 57.4949 44.1368 57.4934 44.0917 57.5037C44.0466 57.514 44.005 57.5359 43.9708 57.5672C41.7846 59.603 39.0216 60.397 36.6533 59.5419C35.9033 59.2918 35.2132 58.8875 34.6269 58.3548C34.0406 57.8221 33.5709 57.1726 33.2475 56.4475C32.1899 53.9028 33.5006 51.4751 33.6878 51.1443C34.0928 50.4371 34.6347 49.8187 35.2814 49.3257C35.928 48.8327 36.6664 48.475 37.4528 48.2738C37.4528 48.2738 40.7675 47.4188 43.1358 49.419C43.1703 49.4502 43.2124 49.472 43.2578 49.482C43.3032 49.492 43.3504 49.49 43.3948 49.4761C43.4392 49.4623 43.4792 49.437 43.511 49.4029C43.5428 49.3688 43.5652 49.327 43.576 49.2815C43.9404 47.8718 44.5426 43.3472 36.132 43.846Z" fill="#D42027"/>
<path d="M36.5167 55.5664C36.6129 54.7928 37.1543 52.2837 40.2665 52.7468C40.2885 52.7489 40.3106 52.7445 40.3301 52.7339C40.3495 52.7234 40.3654 52.7073 40.3757 52.6876C40.386 52.668 40.3903 52.6457 40.388 52.6236C40.3856 52.6015 40.3768 52.5806 40.3627 52.5636C39.7959 51.9325 38.1006 50.37 36.3497 51.8918C34.5988 53.4135 35.8437 55.1185 36.3497 55.6275C36.3633 55.6396 36.38 55.6477 36.3978 55.6511C36.4157 55.6545 36.4341 55.653 36.4512 55.6468C36.4683 55.6405 36.4834 55.6297 36.4949 55.6156C36.5065 55.6015 36.514 55.5844 36.5167 55.5664Z" fill="#F4F4F4"/>
<path d="M58.8184 60.0958C58.8184 60.0958 49.8562 61.7142 53.5757 56.4721C53.5757 56.4721 54.8914 55.2964 52.6699 52.3191C50.4483 49.3418 52.2903 48.8379 52.2903 48.8379C52.2903 48.8379 56.9308 54.1208 55.8732 56.0955C54.8155 58.0702 58.8184 60.0958 58.8184 60.0958Z" fill="#F4F4F4"/>
<path d="M51.592 44.5234C51.592 44.5234 51.339 42.1924 52.8976 42.9456C54.4562 43.6989 54.4562 43.6276 55.0939 42.0499C55.7315 40.4721 57.0422 37.4948 60.1544 37.1691C63.2666 36.8434 66.4699 39.2049 66.5256 40.8488C66.5493 42.0042 66.502 43.16 66.3839 44.3096C66.3839 44.3096 63.6309 39.1438 61.713 40.6859C59.7951 42.228 56.7588 42.4061 56.7588 42.4061L55.3975 44.7779H53.6719L51.592 44.5234Z" fill="#F4F4F4"/>
<path d="M78.4076 58.1064C78.4076 58.1064 79.5664 63.0127 74.9613 62.5088C70.3563 62.005 69.9616 54.6303 70.7864 53.4547C71.6113 52.279 72.5222 50.7674 71.2621 49.551C70.002 48.3347 74.3693 47.1183 73.8581 49.551C73.347 51.9838 71.0243 58.3151 73.2661 59.221C75.5079 60.127 74.6526 64.2647 78.4076 58.1064Z" fill="#F0F7EA"/>
<path d="M67.5831 60.1475C67.5831 60.1475 62.2797 62.7737 62.3252 55.9691C62.3708 49.1645 63.4284 49.4291 63.4284 49.4291C63.4284 49.4291 63.2716 57.3127 64.4405 57.898C64.4709 57.898 65.483 60.0254 67.5831 60.1475Z" fill="#F0F7EA"/>
<path d="M51.9159 47.5158C51.6173 46.162 51.2529 44.4978 52.0981 43.6835C53.1102 42.7317 55.0585 43.5868 55.3216 43.6835C55.3216 43.6835 59.6129 33.5045 66.4547 42.5994C66.6217 42.2482 68.1702 39.164 71.4191 38.6347C74.6679 38.1054 77.4917 40.5025 78.5038 42.859C79.1566 44.3247 79.0706 45.6276 78.9744 47.2715C78.8176 49.9333 78.6 53.7657 78.352 59.0944C78.352 59.186 78.2609 60.9317 76.9553 61.69C75.7813 62.3771 74.1163 61.9597 73.165 60.5703C73.165 60.5703 70.9535 59.0791 72.0112 54.5444C73.0688 50.0097 71.5051 47.8568 69.8959 49.2411C68.2866 50.6255 68.9799 57.3334 68.9799 57.3334C68.9141 58.7432 68.2107 59.9239 67.2087 60.3158C65.8323 60.8553 64.4002 59.7102 63.7524 58.789C62.8769 57.5217 62.9529 55.9185 63.0642 53.4501C63.1755 50.9818 63.5702 50.0402 62.9579 49.4702C62.6011 49.2091 62.1644 49.0824 61.7241 49.1121C61.2839 49.1419 60.868 49.3263 60.5491 49.633C59.6382 50.6 60.6655 52.1421 60.4884 55.5368C60.4428 56.4275 60.3011 59.1911 58.788 59.9698C58.2021 60.2096 57.5564 60.2594 56.941 60.1123C56.4349 60.0512 54.9168 59.8527 54.4107 58.8806C53.9047 57.9085 54.8004 57.1858 54.9775 55.6285C55.3064 52.87 52.8875 51.9691 51.9159 47.5158Z" fill="#D42027"/>
<path d="M57.3154 47.1843C57.3154 47.1843 57.4723 42.0949 61.3031 42.3239C65.1339 42.5529 62.1836 46.3955 60.119 45.7288C58.0543 45.062 57.3154 47.1843 57.3154 47.1843Z" fill="#F4F4F4"/>
<path d="M76.5757 58.4841C76.5757 58.4841 78.696 44.8595 75.432 43.3073C72.1679 41.755 79.2476 50.7481 76.5757 58.4841Z" fill="#F4F4F4"/>
<path d="M28.4046 58.5688C28.4046 58.5688 21.4009 62.6862 17.1501 57.042C12.8992 51.3978 21.0871 61.1696 28.4046 58.5688Z" fill="#F4F4F4"/>
<path d="M91.1652 70.0456C91.1652 70.0456 93.5335 74.0153 87.7088 74.4072C81.8842 74.7991 81.4135 67.7909 81.4135 67.7909C81.4135 67.7909 78.0028 54.9349 81.201 41.0406C81.201 41.0406 82.7748 37.931 85.4012 39.9464C85.4012 39.9464 87.8657 29.7115 94.581 33.1774C101.296 36.6433 94.9504 41.0406 94.9504 41.0406L83.2505 42.9085L82.1827 58.5281L84.3891 69.0938L86.3273 72.4529L91.1652 70.0456Z" fill="#F4F4F4"/>
<path d="M86.0894 41.2917C86.0894 41.2917 82.208 39.7241 81.9449 41.877C81.9449 41.877 80.1889 46.6305 81.3427 60.8352C81.3427 60.8352 82.3548 75.9866 87.7948 73.2433C87.7948 73.2433 91.7977 71.9761 91.1651 70.0472C90.5325 68.1183 87.6632 63.5428 87.5064 57.9699C87.5064 57.9699 96.1396 65.3598 100.259 45.0121C100.259 45.0121 101.752 32.5988 91.1499 34.1053C89.8213 34.8407 88.6757 35.8694 87.7992 37.1141C86.9228 38.3588 86.3382 39.7871 86.0894 41.2917Z" fill="#D42027"/>
<path d="M90.5984 52.0705C93.8067 51.2868 96.0485 48.798 96.1649 46.1617C96.184 44.7667 95.7544 43.4029 94.9403 42.2733C93.9585 40.9195 96.0688 38.6191 95.5779 37.9167C94.9352 36.9955 89.5053 38.4257 88.6399 41.7593C87.9264 44.528 90.6641 47.4595 89.8595 48.2636C89.2877 48.8387 87.7088 47.1796 86.3526 47.9073C85.8523 48.2404 85.4719 48.7266 85.2678 49.294C85.0636 49.8614 85.0465 50.4798 85.219 51.0577C85.7251 52.3199 87.9365 52.951 90.5984 52.0705Z" fill="#F4F4F4"/>
<path d="M102.728 29.5996L101.534 30.9381C102.131 36.1017 102.269 41.3086 101.944 46.4967C101.732 49.6572 101.266 53.7339 103.427 57.3525C104.081 58.4902 104.982 59.4646 106.063 60.2026C107.027 60.7987 108.1 61.1957 109.218 61.3704C110.336 61.5452 111.478 61.4942 112.576 61.2205C117.986 57.0624 105.213 49.8252 105.213 49.8252L102.728 29.5996Z" fill="#F4F4F4"/>
<path d="M111.306 29.6012H102.703C102.872 36.9164 103.04 44.23 103.209 51.5419C103.245 52.234 103.528 56.667 106.913 59.3542C110.299 62.0414 115.248 61.8989 119.059 58.8452V60.9676L123.957 59.0947L123.325 19.4426L118.406 18.2109C119.465 26.293 120.521 34.3751 121.574 42.4572C121.356 43.2817 120.223 47.226 116.761 48.7986C116.088 49.104 113.902 50.1066 112.399 49.048C111.007 48.0657 110.881 45.9638 110.916 41.9839C110.926 38.8437 111.028 34.6347 111.306 29.6012Z" fill="#D42027"/>
<path d="M125.89 61.3798V3.52276C125.89 3.32427 125.688 3.20718 125.556 3.33951C123.291 5.62239 121.372 8.22916 119.863 11.0755C115.774 18.6741 114.924 26.5933 114.707 30.4155V36.6247C114.704 36.6824 114.723 36.739 114.761 36.7827C114.799 36.8263 114.852 36.8536 114.909 36.8588H118.522L118.73 37.098C123.694 43.1697 115.359 57.41 119.16 61.3697C120.597 62.866 123.593 61.5376 125.698 61.6139C125.754 61.6075 125.805 61.5796 125.841 61.5359C125.877 61.4922 125.895 61.4363 125.89 61.3798Z" fill="#F4F4F4"/>
<path opacity="0.63" d="M124.479 8.70898L124.615 59.1354C123.73 59.736 121.958 60.7691 120.835 60.0566C119.712 59.3441 119.782 57.2116 119.975 54.7025C120.8 43.9536 122.758 40.0754 120.739 36.8181C119.626 35.0266 118.563 35.388 117.439 33.968C115.248 31.1943 115.334 24.695 124.479 8.70898Z" fill="#D5D3D8"/>
<path d="M114.691 59.0229C114.691 59.0229 106.352 59.771 106.407 51.3123C106.463 42.8536 106.473 55.6639 114.691 59.0229Z" fill="#F4F4F4"/>
<path d="M108.948 34.9605C108.948 33.9036 108.096 33.0469 107.045 33.0469C105.994 33.0469 105.142 33.9036 105.142 34.9605V35.1845C105.142 36.2413 105.994 37.0981 107.045 37.0981C108.096 37.0981 108.948 36.2413 108.948 35.1845V34.9605Z" fill="#F4F4F4"/>
<path d="M89.4902 70.3826C89.4902 69.8542 89.0642 69.4258 88.5388 69.4258C88.0134 69.4258 87.5874 69.8542 87.5874 70.3826V70.4946C87.5874 71.023 88.0134 71.4514 88.5388 71.4514C89.0642 71.4514 89.4902 71.023 89.4902 70.4946V70.3826Z" fill="#F4F4F4"/>
<path d="M136.386 38.9811H137.818C137.89 38.9837 137.957 39.0145 138.007 39.0669C138.056 39.1193 138.083 39.189 138.081 39.261V45.0986C138.083 45.1371 138.076 45.1756 138.062 45.2113C138.047 45.247 138.026 45.2792 137.998 45.3058C137.97 45.3323 137.937 45.3525 137.901 45.3651C137.864 45.3776 137.826 45.3822 137.788 45.3785C136.523 45.2055 131.634 44.6864 132.12 46.9665C132.682 49.5875 126.503 44.4217 130.323 42.3045C133.8 40.3654 135.89 39.1999 136.269 39.0116C136.304 38.9885 136.345 38.9777 136.386 38.9811Z" fill="#F4F4F4"/>
<path d="M135.652 49.3275C135.662 49.2927 135.68 49.2603 135.703 49.2323C135.726 49.2043 135.754 49.1813 135.786 49.1647C135.819 49.148 135.854 49.1381 135.89 49.1355C135.926 49.1328 135.962 49.1376 135.996 49.1494C137.226 49.5921 142.443 51.9537 138.395 59.0637C138.395 59.0637 136.148 63.7256 125.992 61.9646C125.925 61.9504 125.865 61.9132 125.822 61.8593C125.78 61.8054 125.757 61.7382 125.759 61.6695V60.5803C125.755 60.5077 125.779 60.4363 125.826 60.3812C125.873 60.3261 125.94 60.2916 126.012 60.2851C127.484 60.1782 134.873 59.4657 134.741 55.9133C134.652 53.681 134.961 51.4506 135.652 49.3275Z" fill="#F4F4F4"/>
<path d="M125.728 55.2617V60C125.726 60.0822 125.752 60.1628 125.803 60.2271C125.854 60.2915 125.926 60.3355 126.007 60.3511C127.621 60.6158 135.738 61.6541 137.185 55.8164C138.729 49.6124 134.534 48.2942 134.149 48.1822H134.094C133.587 47.9125 126.326 44.0801 133.405 43.7137H136.27C136.317 43.7118 136.364 43.7002 136.407 43.6794C136.45 43.6587 136.489 43.6293 136.52 43.593C136.551 43.5568 136.575 43.5144 136.589 43.4687C136.604 43.4229 136.608 43.3746 136.604 43.3269L136.33 38.8074C136.325 38.7332 136.298 38.6623 136.252 38.6041C136.206 38.5459 136.143 38.5032 136.072 38.4817C132.024 37.3773 128.041 39.0415 126.417 42.2225C125.405 44.2582 125 47.4697 126.452 49.3935C128.213 51.7245 131.983 51.2359 132.257 53.0936C132.302 53.5144 132.194 53.9377 131.953 54.2845C131.148 55.5721 128.871 55.8114 126.189 54.9258C126.136 54.9053 126.079 54.8985 126.023 54.9058C125.967 54.9132 125.914 54.9346 125.868 54.9679C125.822 55.0013 125.786 55.0457 125.761 55.097C125.737 55.1483 125.726 55.2049 125.728 55.2617Z" fill="#D42027"/>
<path d="M127.13 59.1694C128.916 59.3116 130.713 59.1795 132.459 58.7775C135.262 58.0396 137.636 56.1259 135.106 51.3418C135.106 51.3418 136.943 58.5587 127.13 59.1694Z" fill="#F4F4F4"/>
<path d="M127.419 48.0336C127.419 48.0336 124.691 40.1347 132.14 39.9668C132.14 39.9668 126.989 41.2544 127.419 48.0336Z" fill="#F4F4F4"/>
<path d="M96.7418 75.2588H98.5788C98.6247 75.2601 98.6698 75.2705 98.7117 75.2894C98.7535 75.3082 98.7913 75.3352 98.8228 75.3688C98.8543 75.4023 98.8789 75.4418 98.8952 75.4849C98.9115 75.5281 98.9192 75.574 98.9178 75.6201V83.1118C98.9203 83.161 98.9121 83.2102 98.8939 83.256C98.8757 83.3017 98.8478 83.3429 98.8122 83.3767C98.7766 83.4106 98.7342 83.4363 98.6878 83.4521C98.6413 83.4679 98.5921 83.4733 98.5434 83.4681C96.9189 83.2493 90.6388 82.5826 91.2663 85.5039C91.9849 88.863 84.0551 82.2466 88.9588 79.5136C93.4221 77.0248 96.1396 75.5285 96.59 75.2842C96.6378 75.2634 96.6899 75.2547 96.7418 75.2588Z" fill="#F4F4F4"/>
<path d="M96.0587 88.5371C96.0702 88.4938 96.0904 88.4532 96.1182 88.418C96.1459 88.3829 96.1806 88.3539 96.2201 88.3329C96.2595 88.3118 96.3029 88.2992 96.3474 88.2958C96.3919 88.2925 96.4366 88.2984 96.4787 88.3132C97.9969 88.8782 104.368 91.9166 99.4138 101.037C99.4138 101.037 96.6609 107.027 84.2323 104.762C84.1485 104.743 84.0741 104.694 84.0215 104.626C83.969 104.557 83.9416 104.472 83.9438 104.386V102.981C83.9392 102.891 83.9683 102.802 84.0254 102.732C84.0826 102.663 84.1636 102.617 84.2525 102.604C86.0541 102.467 95.1023 101.551 94.9403 97.006C94.8321 94.1397 95.2103 91.2757 96.0587 88.5371Z" fill="#F4F4F4"/>
<path d="M83.9438 96.1292V102.237C83.9398 102.342 83.974 102.446 84.04 102.528C84.1061 102.611 84.1995 102.666 84.3031 102.684C86.3729 103.031 96.7975 104.359 98.6548 96.8672C100.638 88.8971 95.249 87.1972 94.7784 87.075H94.7126C94.0396 86.7239 84.7383 81.8074 93.827 81.3341H97.501C97.5636 81.3325 97.6253 81.3177 97.6819 81.2905C97.7384 81.2634 97.7887 81.2245 97.8293 81.1764C97.8699 81.1284 97.8999 81.0722 97.9175 81.0117C97.935 80.9512 97.9397 80.8876 97.9311 80.8251L97.5313 75.0384C97.5254 74.9428 97.4908 74.8512 97.4321 74.7758C97.3734 74.7004 97.2933 74.6447 97.2024 74.616C91.985 73.1961 86.884 75.3387 84.8041 79.4204C83.4884 82.011 82.9823 86.1539 84.8497 88.6273C87.1067 91.62 91.9344 90.9939 92.3038 93.3758C92.3572 93.915 92.2192 94.4559 91.9141 94.9026C90.902 96.5567 87.9518 96.8875 84.5106 95.7271C84.4466 95.7067 84.3787 95.7014 84.3123 95.7117C84.2459 95.722 84.1828 95.7476 84.1279 95.7866C84.073 95.8255 84.0278 95.8767 83.9959 95.9362C83.964 95.9956 83.9461 96.0617 83.9438 96.1292Z" fill="#D42027"/>
<path d="M84.8597 101.184C87.1528 101.365 89.4599 101.193 91.7016 100.675C95.2996 99.7231 98.3511 97.2649 95.1022 91.127C95.1022 91.132 97.4604 100.395 84.8597 101.184Z" fill="#F4F4F4"/>
<path d="M85.2191 86.8817C85.2191 86.8817 81.6767 76.7384 91.2917 76.5195C91.2917 76.5195 84.6776 78.1787 85.2191 86.8817Z" fill="#F4F4F4"/>
<path d="M23.9312 105.997L12.8284 106.048C12.754 106.046 12.6807 106.029 12.6129 105.999C12.5451 105.968 12.4841 105.923 12.4336 105.868C12.3831 105.813 12.3441 105.749 12.319 105.678C12.2938 105.608 12.2829 105.533 12.287 105.458L12.8487 81.115L13.0207 77.018C13.0299 76.8815 12.99 76.7463 12.9082 76.637C12.8265 76.5276 12.7083 76.4515 12.5754 76.4225C12.2617 76.3849 11.9593 76.2811 11.6881 76.118C11.4169 75.9549 11.183 75.7361 11.0016 75.4759C9.64538 73.2874 13.628 68.4372 14.1088 68.7018C14.382 68.8494 13.3143 70.534 14.0582 71.9438C14.6199 73.0075 15.6067 72.7581 16.472 73.5062C19.3059 75.9746 16.3657 85.4207 16.3657 85.4207L17.975 95.9763C17.9902 96.057 17.9902 96.1398 17.975 96.2205C17.4689 98.1189 17.7878 99.203 18.1622 99.8442C19.483 102.099 23.076 101.32 24.1994 103.646C24.4598 104.221 24.5578 104.856 24.4828 105.483C24.4726 105.623 24.41 105.754 24.3076 105.85C24.2053 105.945 24.0708 105.998 23.9312 105.997Z" fill="#F4F4F4"/>
<path d="M13.9114 102.599C13.9114 102.599 13.6483 104.446 16.3202 104.558C18.7898 104.66 28.9361 104.558 30.52 104.558C30.6685 104.557 30.8163 104.538 30.9603 104.502C31.8155 104.283 34.7405 103.372 34.8974 101.204C35.0644 98.858 35.0593 93.4886 35.0542 92.6489C35.0618 92.554 35.0618 92.4587 35.0542 92.3639C34.9572 91.662 34.6521 91.0057 34.1788 90.4807C33.8806 90.1601 33.6892 89.7541 33.6312 89.319C33.5732 88.8839 33.6513 88.4415 33.8549 88.0531C34.2901 87.2254 34.573 86.3253 34.6899 85.3964C34.6899 85.2946 34.6899 85.1877 34.6899 85.0808V73.0799C34.6899 73.0799 35.0036 67.2066 29.6294 66.5348C25.0749 65.9699 16.5783 66.3618 14.043 66.4941C13.5213 66.5294 13.0334 66.7664 12.6816 67.1553C12.3297 67.5443 12.1412 68.0551 12.1554 68.5808V68.6317C12.1554 70.4486 12.1554 73.5532 12.1554 73.5532C12.1554 73.5532 12.0795 74.8968 13.7292 74.6729C13.7292 74.6729 14.4124 74.5863 14.463 76.4898C14.5136 78.3933 13.9114 102.599 13.9114 102.599Z" fill="#D42027"/>
<path d="M21.6084 74.7539V85.0295H25.0698C25.0698 85.0295 27.5494 84.5663 27.4735 81.5483C27.3976 78.5302 27.4735 75.3442 27.4735 75.3442C27.4735 75.3442 25.9756 73.7919 21.6084 74.7539Z" fill="#F4F4F4"/>
<path d="M21.6084 94.6738H27.6811C27.6811 94.6738 29.4118 96.0174 27.6811 97.5239H21.4212C21.4212 97.5239 20.2725 95.3456 21.6084 94.6738Z" fill="#F4F4F4"/>
<path d="M37.1441 76.9876L38.6623 99.0555C38.6669 99.1288 38.6558 99.2022 38.6296 99.2707C38.6034 99.3393 38.5627 99.4012 38.5105 99.4525C37.5287 100.374 32.5492 105.341 32.6959 111.092C32.816 114.915 33.4144 118.708 34.4772 122.381C34.5036 122.475 34.5598 122.559 34.6373 122.618C34.7149 122.678 34.8097 122.711 34.9074 122.711H35.2363C35.3589 122.707 35.475 122.655 35.5593 122.565C35.6436 122.476 35.6894 122.356 35.6867 122.233V110.802C35.6819 110.739 35.6898 110.675 35.71 110.615C35.7303 110.554 35.7624 110.499 35.8044 110.451C35.8464 110.404 35.8976 110.365 35.9547 110.338C36.0119 110.311 36.0739 110.296 36.1371 110.293H37.2048C37.268 110.296 37.33 110.311 37.3872 110.338C37.4444 110.365 37.4955 110.404 37.5375 110.451C37.5796 110.499 37.6117 110.554 37.6319 110.615C37.6521 110.675 37.66 110.739 37.6552 110.802V121.999C37.6504 122.062 37.6584 122.126 37.6786 122.186C37.6988 122.246 37.7309 122.302 37.7729 122.35C37.815 122.397 37.8661 122.436 37.9233 122.463C37.9804 122.49 38.0424 122.505 38.1056 122.508H39.1683C39.2315 122.505 39.2935 122.49 39.3507 122.463C39.4078 122.436 39.459 122.397 39.501 122.35C39.543 122.302 39.5751 122.246 39.5953 122.186C39.6156 122.126 39.6235 122.062 39.6187 121.999V110.771C39.616 110.648 39.6618 110.529 39.7461 110.439C39.8304 110.35 39.9465 110.297 40.0691 110.293H41.5012C41.5624 110.294 41.6227 110.308 41.6786 110.333C41.7346 110.357 41.7852 110.393 41.8275 110.437C41.8698 110.482 41.903 110.534 41.9251 110.592C41.9473 110.649 41.958 110.71 41.9567 110.771V121.999C41.9539 122.122 41.9997 122.242 42.084 122.331C42.1684 122.421 42.2845 122.473 42.4071 122.477H43.6368C43.7594 122.473 43.8754 122.421 43.9598 122.331C44.0441 122.242 44.0899 122.122 44.0871 121.999V110.7C44.0823 110.637 44.0903 110.573 44.1105 110.513C44.1307 110.453 44.1628 110.397 44.2048 110.35C44.2469 110.302 44.298 110.264 44.3552 110.236C44.4123 110.209 44.4743 110.194 44.5375 110.191H45.6863C45.7494 110.194 45.8115 110.209 45.8686 110.236C45.9258 110.264 45.9769 110.302 46.0189 110.35C46.061 110.397 46.0931 110.453 46.1133 110.513C46.1335 110.573 46.1415 110.637 46.1366 110.7V121.296C46.131 121.39 46.1542 121.482 46.2029 121.562C46.2516 121.641 46.3235 121.703 46.4088 121.74C46.4941 121.777 46.5886 121.786 46.6794 121.767C46.7701 121.748 46.8528 121.701 46.916 121.632C47.8016 120.615 49.1173 118.217 49.006 112.711C48.8643 105.422 45.1144 102.023 44.2288 101.356C44.1724 101.309 44.1268 101.25 44.0954 101.183C44.0639 101.116 44.0473 101.043 44.0467 100.969L44.1681 76.6517C44.1738 76.586 44.1657 76.5198 44.1442 76.4575C44.1228 76.3952 44.0885 76.3381 44.0435 76.2901C43.9986 76.242 43.9441 76.2041 43.8836 76.1787C43.8231 76.1533 43.758 76.141 43.6924 76.1427L37.5388 76.443C37.4149 76.463 37.3039 76.5315 37.23 76.6335C37.156 76.7355 37.1252 76.8628 37.1441 76.9876Z" fill="#F4F4F4"/>
<path d="M43.4395 74.7486L37.5996 75.054C37.5055 75.056 37.4119 75.0393 37.3242 75.0047C37.2366 74.9702 37.1566 74.9185 37.0888 74.8528C37.0211 74.787 36.9669 74.7084 36.9295 74.6215C36.8922 74.5347 36.8722 74.4412 36.8709 74.3465L36.5875 68.1272C36.5735 67.9357 36.6354 67.7464 36.7595 67.6005C36.8837 67.4547 37.0602 67.3641 37.2504 67.3485L43.0852 67.0431C43.1796 67.0411 43.2734 67.0578 43.3614 67.0922C43.4493 67.1267 43.5297 67.1783 43.5978 67.244C43.666 67.3097 43.7206 67.3882 43.7585 67.4751C43.7965 67.5621 43.817 67.6556 43.819 67.7505L44.1024 73.9699C44.1164 74.1614 44.0545 74.3507 43.9304 74.4965C43.8062 74.6424 43.6297 74.733 43.4395 74.7486Z" fill="#D42027"/>
<path opacity="0.63" d="M41.481 78.3926L38.7028 78.6369C38.6835 78.6382 38.6647 78.6433 38.6473 78.652C38.63 78.6606 38.6146 78.6726 38.6019 78.6872C38.5892 78.7019 38.5795 78.7189 38.5734 78.7374C38.5672 78.7558 38.5648 78.7753 38.5662 78.7947V79.4359C38.6218 81.1104 38.6775 82.9019 38.6825 83.1665C38.7584 85.5077 38.971 89.0856 39.0368 90.2918C39.1684 92.5464 39.3404 95.8138 39.5074 99.9618C39.5084 99.9866 39.504 100.011 39.4944 100.034C39.4847 100.057 39.4702 100.078 39.4517 100.094C37.9135 101.314 36.6071 102.804 35.5956 104.491C34.716 105.948 34.0656 107.532 33.6676 109.189C33.0501 112.017 33.2021 114.96 34.1078 117.709C34.1163 117.737 34.1336 117.763 34.1573 117.781C34.1809 117.799 34.2096 117.81 34.2394 117.811C34.3638 117.825 34.4898 117.811 34.6081 117.769C34.7263 117.728 34.8338 117.66 34.9226 117.571C34.9786 117.51 35.0171 117.434 35.0339 117.352C35.1301 116.905 35.0339 110.533 35.0339 110.533C35.0339 110.533 34.9732 109.718 35.7576 109.774C36.2636 109.815 37.1441 109.774 37.6401 109.774C37.6939 109.774 37.7471 109.785 37.7967 109.806C37.8462 109.827 37.8909 109.858 37.9283 109.897C37.9656 109.936 37.9947 109.982 38.0139 110.033C38.0331 110.084 38.0419 110.138 38.0399 110.192V119.505C38.0371 119.653 38.0925 119.796 38.1939 119.902C38.2953 120.009 38.4346 120.071 38.5813 120.075C38.6538 120.073 38.7251 120.057 38.7913 120.027C38.8575 119.998 38.9172 119.955 38.967 119.902C39.0168 119.849 39.0558 119.787 39.0816 119.719C39.1075 119.651 39.1198 119.578 39.1177 119.505V110.222C39.1136 110.075 39.1677 109.931 39.2682 109.823C39.3687 109.716 39.5074 109.652 39.6542 109.647H41.9112C42.0579 109.652 42.1966 109.716 42.2971 109.823C42.3976 109.931 42.4517 110.075 42.4476 110.222V120.035C42.4455 120.108 42.458 120.181 42.4841 120.25C42.5102 120.319 42.5495 120.382 42.5998 120.435C42.6501 120.488 42.7104 120.531 42.7771 120.561C42.8439 120.591 42.9159 120.608 42.989 120.61H43.0903C43.1634 120.608 43.2354 120.591 43.3022 120.561C43.3689 120.531 43.4292 120.488 43.4795 120.435C43.5298 120.382 43.5691 120.319 43.5952 120.25C43.6213 120.181 43.6337 120.108 43.6317 120.035V110.141C43.629 110.067 43.6408 109.994 43.6664 109.926C43.6919 109.857 43.7308 109.794 43.7806 109.741C43.8305 109.687 43.8905 109.644 43.957 109.614C44.0235 109.584 44.0953 109.568 44.1681 109.566H46.0557C46.1286 109.568 46.2004 109.584 46.2669 109.614C46.3334 109.644 46.3933 109.687 46.4432 109.741C46.4931 109.794 46.5319 109.857 46.5575 109.926C46.5831 109.994 46.5948 110.067 46.5921 110.141V118.467C46.586 118.562 46.6146 118.656 46.6725 118.732C46.7305 118.807 46.8139 118.859 46.907 118.877C47.0001 118.895 47.0966 118.879 47.1784 118.83C47.2602 118.782 47.3216 118.705 47.3512 118.615C47.8927 117.088 49.0364 112.268 47.5486 107.789C46.5977 104.995 44.9431 102.496 42.7461 100.537C42.7302 100.523 42.7174 100.506 42.7087 100.486C42.7 100.467 42.6955 100.446 42.6955 100.425L42.0427 78.9117L41.481 78.3926Z" fill="#D5D3D8"/>
<path d="M38.1562 73.6094C38.1562 73.6094 45.0386 76.663 42.8625 68.3672C42.8777 68.3672 43.151 74.2761 38.1562 73.6094Z" fill="#F4F4F4"/>
<path d="M38.4245 69.99C38.7599 69.99 39.0318 69.7006 39.0318 69.3436C39.0318 68.9867 38.7599 68.6973 38.4245 68.6973C38.0891 68.6973 37.8173 68.9867 37.8173 69.3436C37.8173 69.7006 38.0891 69.99 38.4245 69.99Z" fill="#F4F4F4"/>
<path d="M55.3063 65.0286L58.3426 62.9062V72.1487H62.8971V79.956H58.2768V94.0487H62.8971V102.151C62.8971 102.151 55.1241 108.9 49.674 97.1533C49.674 97.1533 53.5098 79.1416 53.3226 79.0398C53.1353 78.9381 54.1272 74.6476 54.1272 74.6476L54.365 68.4843L55.3063 65.0286Z" fill="#F4F4F4"/>
<path d="M50.256 68.3609L55.3165 65.0273V71.8472H59.9165V77.0741H55.5797V90.1082C55.5797 90.1082 56.7891 94.8822 59.9165 92.9889V100.72C59.9165 100.72 50.8076 103.371 49.6791 97.1571V80.1838H45.7673V71.4655H50.4584L50.256 68.3609Z" fill="#D42027"/>
<path d="M78.7669 89.757L78.4532 91.2839C77.8459 91.6503 72.3299 94.8465 67.9931 92.4493C62.715 89.5178 63.5297 80.6926 64.4811 76.9366C64.9527 74.9971 65.8138 73.175 67.0113 71.5825C68.9697 69.0378 71.3836 67.7145 72.8866 67.455C73.4372 67.3669 73.9969 67.3515 74.5515 67.4091C74.6527 67.4091 75.9381 67.5109 76.4745 68.0199C78.1293 69.5976 76.4745 73.6794 76.4745 73.6794L69.8402 73.5165L68.8938 78.8961L70.9484 88.393L78.7669 89.757Z" fill="#F4F4F4"/>
<path d="M78.7669 89.788C78.7669 89.788 70.6701 97.2085 66.3079 87.4927C66.3079 87.4927 63.3931 77.2171 70.1438 70.6007C70.1438 70.6007 74.7286 66.7276 78.4936 71.3438C78.4936 71.3438 82.1069 76.1788 77.0463 81.3293C77.0463 81.3293 74.8551 84.2762 71.1913 82.1284C71.1913 82.1284 71.5911 90.6787 77.2639 84.7545C77.2488 84.7545 77.2741 88.2103 78.7669 89.788Z" fill="#D42027"/>
<path d="M70.6296 78.5563C70.6296 78.5563 71.8745 72.9578 73.7722 73.3497C75.6699 73.7416 74.5414 77.3602 73.5192 78.1847C72.497 79.0092 71.6013 79.4316 70.6296 78.5563Z" fill="white"/>
</g>
<defs>
<clipPath id="clip0_258_1168">
<rect width="143" height="126" fill="white"/>
</clipPath>
</defs>
</svg>
