<svg width="21" height="21" viewBox="0 0 21 21" fill="none" xmlns="http://www.w3.org/2000/svg">
<path d="M14.4375 8.22484L6.5625 3.68359" stroke="white" stroke-width="1.75" stroke-linecap="round" stroke-linejoin="round"/>
<path d="M18.375 14.0002V7.00016C18.3747 6.69327 18.2937 6.39187 18.1401 6.12618C17.9865 5.86048 17.7658 5.63985 17.5 5.48641L11.375 1.98641C11.109 1.83281 10.8072 1.75195 10.5 1.75195C10.1928 1.75195 9.89103 1.83281 9.625 1.98641L3.5 5.48641C3.23423 5.63985 3.01348 5.86048 2.8599 6.12618C2.70632 6.39187 2.62531 6.69327 2.625 7.00016V14.0002C2.62531 14.307 2.70632 14.6084 2.8599 14.8741C3.01348 15.1398 3.23423 15.3605 3.5 15.5139L9.625 19.0139C9.89103 19.1675 10.1928 19.2484 10.5 19.2484C10.8072 19.2484 11.109 19.1675 11.375 19.0139L17.5 15.5139C17.7658 15.3605 17.9865 15.1398 18.1401 14.8741C18.2937 14.6084 18.3747 14.307 18.375 14.0002Z" stroke="white" stroke-width="1.75" stroke-linecap="round" stroke-linejoin="round"/>
<path d="M2.86133 6.08984L10.5001 10.5086L18.1388 6.08984" stroke="white" stroke-width="1.75" stroke-linecap="round" stroke-linejoin="round"/>
<path d="M10.5 19.32V10.5" stroke="white" stroke-width="1.75" stroke-linecap="round" stroke-linejoin="round"/>
</svg>
