<svg width="19" height="19" viewBox="0 0 19 19" fill="none" xmlns="http://www.w3.org/2000/svg">
<path d="M16.9732 8.74887L9.69774 16.0243C8.80645 16.9156 7.59759 17.4163 6.33711 17.4163C5.07664 17.4163 3.86778 16.9156 2.97649 16.0243C2.0852 15.133 1.58447 13.9241 1.58447 12.6637C1.58447 11.4032 2.0852 10.1943 2.97649 9.30304L10.2519 2.02762C10.8461 1.43342 11.652 1.09961 12.4923 1.09961C13.3326 1.09961 14.1385 1.43342 14.7327 2.02762C15.3269 2.62182 15.6607 3.42772 15.6607 4.26804C15.6607 5.10836 15.3269 5.91426 14.7327 6.50845L7.44941 13.7839C7.15231 14.081 6.74936 14.2479 6.3292 14.2479C5.90904 14.2479 5.50609 14.081 5.20899 13.7839C4.91189 13.4868 4.74498 13.0838 4.74498 12.6637C4.74498 12.2435 4.91189 11.8406 5.20899 11.5435L11.9302 4.83012" stroke="white" stroke-width="1.5" stroke-linecap="round" stroke-linejoin="round"/>
</svg>
