<svg width="20" height="19" viewBox="0 0 20 19" fill="none" xmlns="http://www.w3.org/2000/svg">
<path d="M17.451 10.2994C17.4413 12.0203 16.9215 13.6996 15.9573 15.125C14.9931 16.5505 13.6279 17.658 12.0343 18.3075C10.4407 18.9571 8.69028 19.1195 7.00438 18.7742C5.31847 18.4289 3.77281 17.5915 2.56286 16.3678C1.35291 15.144 0.533007 13.589 0.206836 11.8993C-0.119336 10.2096 0.0628736 8.4611 0.730422 6.87495C1.39797 5.2888 2.52088 3.93622 3.95714 2.98825C5.39341 2.04029 7.07852 1.53951 8.79939 1.54925L8.75014 10.2501L17.451 10.2994Z" fill="#5F5F5F"/>
<path d="M19.0745 8.65408C19.0803 7.52336 18.8633 6.40258 18.4359 5.35573C18.0085 4.30889 17.3791 3.35647 16.5836 2.55287C15.7881 1.74926 14.8422 1.1102 13.7997 0.672182C12.7573 0.23416 11.6388 0.0057526 10.5081 0L10.4643 8.61027L19.0745 8.65408Z" fill="#5F5F5F"/>
</svg>
