<svg width="20" height="20" viewBox="0 0 20 20" fill="none" xmlns="http://www.w3.org/2000/svg">
<path d="M4.88995 1.62988L2.44495 4.88988V16.2999C2.44495 16.7322 2.61668 17.1468 2.92236 17.4525C3.22805 17.7581 3.64264 17.9299 4.07495 17.9299H15.4849C15.9172 17.9299 16.3318 17.7581 16.6375 17.4525C16.9432 17.1468 17.1149 16.7322 17.1149 16.2999V4.88988L14.6699 1.62988H4.88995Z" stroke="#5F5F5F" stroke-linecap="round" stroke-linejoin="round"/>
<path d="M2.44495 4.88965H17.1149" stroke="#5F5F5F" stroke-linecap="round" stroke-linejoin="round"/>
<path d="M13.04 8.15039C13.04 9.015 12.6966 9.84419 12.0852 10.4556C11.4738 11.0669 10.6446 11.4104 9.78002 11.4104C8.91541 11.4104 8.08622 11.0669 7.47485 10.4556C6.86348 9.84419 6.52002 9.015 6.52002 8.15039" stroke="#5F5F5F" stroke-linecap="round" stroke-linejoin="round"/>
</svg>
