<svg width="21" height="20" viewBox="0 0 21 20" fill="none" xmlns="http://www.w3.org/2000/svg">
<path d="M7.90856 18.9994C8.38553 18.9994 8.77219 18.6157 8.77219 18.1423C8.77219 17.6689 8.38553 17.2852 7.90856 17.2852C7.43159 17.2852 7.04492 17.6689 7.04492 18.1423C7.04492 18.6157 7.43159 18.9994 7.90856 18.9994Z" stroke="#5F5F5F" stroke-width="2" stroke-linecap="round" stroke-linejoin="round"/>
<path d="M17.4095 18.9994C17.8865 18.9994 18.2732 18.6157 18.2732 18.1423C18.2732 17.6689 17.8865 17.2852 17.4095 17.2852C16.9326 17.2852 16.5459 17.6689 16.5459 18.1423C16.5459 18.6157 16.9326 18.9994 17.4095 18.9994Z" stroke="#5F5F5F" stroke-width="2" stroke-linecap="round" stroke-linejoin="round"/>
<path d="M1 1H4.45455L6.76909 12.4771C6.84807 12.8718 7.06438 13.2263 7.38015 13.4785C7.69593 13.7308 8.09106 13.8649 8.49636 13.8571H16.8909C17.2962 13.8649 17.6913 13.7308 18.0071 13.4785C18.3229 13.2263 18.5392 12.8718 18.6182 12.4771L20 5.28571H5.31818" stroke="#5F5F5F" stroke-width="2" stroke-linecap="round" stroke-linejoin="round"/>
</svg>
