<svg width="17" height="17" viewBox="0 0 17 17" fill="none" xmlns="http://www.w3.org/2000/svg">
<path d="M7.20767 1.49498C7.5651 0.394906 9.12141 0.394909 9.47884 1.49498L10.6219 5.01295C10.7818 5.50491 11.2402 5.838 11.7575 5.838H15.4565C16.6132 5.838 17.0941 7.31813 16.1583 7.99801L13.1658 10.1722C12.7473 10.4763 12.5722 11.0152 12.732 11.5072L13.8751 15.0252C14.2325 16.1252 12.9734 17.04 12.0376 16.3601L9.04509 14.1859C8.6266 13.8819 8.05992 13.8819 7.64143 14.1859L4.64886 16.3601C3.71309 17.04 2.45401 16.1252 2.81145 15.0252L3.9545 11.5072C4.11435 11.0152 3.93924 10.4763 3.52075 10.1722L0.528182 7.99801C-0.407593 7.31813 0.0733347 5.838 1.23002 5.838H4.92903C5.44631 5.838 5.90476 5.50491 6.06461 5.01295L7.20767 1.49498Z" fill="#9C1421"/>
</svg>
