<svg width="68" height="68" viewBox="0 0 68 68" fill="none" xmlns="http://www.w3.org/2000/svg">
<g clip-path="url(#clip0_510_3893)">
<path d="M45.484 44.8548L34.304 33.6748L23.124 44.8548" stroke="black" stroke-width="5.59" stroke-linecap="round" stroke-linejoin="round"/>
<path d="M34.3037 33.6748V58.8298" stroke="#9C1421" stroke-width="5.59" stroke-linecap="round" stroke-linejoin="round"/>
<path d="M57.7539 51.5346C60.48 50.0484 62.6335 47.6967 63.8746 44.8507C65.1157 42.0047 65.3737 38.8264 64.6079 35.8174C63.842 32.8085 62.0959 30.1403 59.6452 28.2339C57.1945 26.3275 54.1788 25.2916 51.0739 25.2895H47.5522C46.7062 22.0172 45.1294 18.9793 42.9403 16.4042C40.7512 13.829 38.0068 11.7836 34.9135 10.4218C31.8201 9.05995 28.4583 8.41709 25.0807 8.54153C21.7031 8.66597 18.3977 9.55449 15.4129 11.1403C12.4282 12.7261 9.84176 14.9679 7.84812 17.6971C5.85447 20.4264 4.50549 23.5721 3.90258 26.8977C3.29967 30.2234 3.45852 33.6425 4.3672 36.8979C5.27588 40.1533 6.91073 43.1604 9.14885 45.693" stroke="black" stroke-width="5.59" stroke-linecap="round" stroke-linejoin="round"/>
<path d="M45.484 44.8548L34.304 33.6748L23.124 44.8548" stroke="#9C1421" stroke-width="5.59" stroke-linecap="round" stroke-linejoin="round"/>
</g>
<defs>
<clipPath id="clip0_510_3893">
<rect width="67.0801" height="67.0801" fill="white" transform="translate(0.763672 0.134766)"/>
</clipPath>
</defs>
</svg>
