<svg width="19" height="19" viewBox="0 0 19 19" fill="none" xmlns="http://www.w3.org/2000/svg">
<path d="M13.4587 16.625V15.0417C13.4587 14.2018 13.125 13.3964 12.5312 12.8025C11.9373 12.2086 11.1318 11.875 10.292 11.875H3.95866C3.11881 11.875 2.31335 12.2086 1.71949 12.8025C1.12562 13.3964 0.791992 14.2018 0.791992 15.0417V16.625" stroke="white" stroke-width="1.58333" stroke-linecap="round" stroke-linejoin="round"/>
<path d="M7.12467 8.70833C8.87358 8.70833 10.2913 7.29057 10.2913 5.54167C10.2913 3.79276 8.87358 2.375 7.12467 2.375C5.37577 2.375 3.95801 3.79276 3.95801 5.54167C3.95801 7.29057 5.37577 8.70833 7.12467 8.70833Z" stroke="white" stroke-width="1.58333" stroke-linecap="round" stroke-linejoin="round"/>
<path d="M18.208 16.6256V15.0423C18.2075 14.3406 17.974 13.659 17.5441 13.1045C17.1142 12.55 16.5124 12.1539 15.833 11.9785" stroke="white" stroke-width="1.58333" stroke-linecap="round" stroke-linejoin="round"/>
<path d="M12.667 2.47852C13.3482 2.65292 13.9519 3.04907 14.383 3.60451C14.8142 4.15995 15.0482 4.84309 15.0482 5.54622C15.0482 6.24936 14.8142 6.9325 14.383 7.48794C13.9519 8.04338 13.3482 8.43953 12.667 8.61393" stroke="white" stroke-width="1.58333" stroke-linecap="round" stroke-linejoin="round"/>
</svg>
